<svg id="Layer_1" data-name="Layer 1" xmlns="http://www.w3.org/2000/svg" viewBox="0 0 275 54.71"><defs><style>.cls-1{fill:#bcbec0;}.cls-2{fill:#333;}.cls-3{fill:#414042;}.cls-4{fill:#fff;}</style></defs><title>header_tablet</title><path class="cls-1" d="M80.55,55.41h-.73l-.4-.66a3,3,0,0,1-2.52.91,2.76,2.76,0,0,1-3-3.1V43.11c0-2.3,1.29-3.45,3.29-3.45,1.83,0,3,.73,3,3.47a13.51,13.51,0,0,1-.14,2l-2-.16a9.82,9.82,0,0,0,.12-1.53c0-1.47-.32-1.69-.77-1.69-.6,0-.77.32-.77,1v10c0,.58.22.89.75.89s.64-.3.64-.89V48h2.56Z" transform="translate(-1.87 -1.93)"/><path class="cls-1" d="M87.2,55.45a2.82,2.82,0,0,1-.2-.93c0-1.35,0-1.85-.06-2.84,0-2.32-.36-2.56-.69-2.56h-.38v6.33H83.19V39.93h3.35c2.16,0,3.3,1.23,3.3,4.07,0,2.16-.18,3.3-1.53,4,1.17.75,1.29,2.56,1.29,3.55v1.17a10.06,10.06,0,0,0,.26,2.76Zm-1-13.38h-.36V47h.34c.6,0,1-.48,1-2.56S86.82,42.07,86.23,42.07Z" transform="translate(-1.87 -1.93)"/><path class="cls-1" d="M98.83,55.41h-2.7l-.2-2.16H94.33l-.2,2.16H91.89l2-15.48h2.88ZM95.66,51.1l-.48-6.17-.62,6.17Z" transform="translate(-1.87 -1.93)"/><path class="cls-1" d="M104.47,49.87h-.6v5.54h-2.68V39.93h3.18c2.3,0,3.43,1.23,3.43,4.9C107.8,48.7,106.36,49.87,104.47,49.87Zm-.32-7.8h-.28v5.66h.3c.6,0,1-.6,1-2.92C105.17,42.65,104.81,42.07,104.15,42.07Z" transform="translate(-1.87 -1.93)"/><path class="cls-1" d="M117.07,55.45H114.4V48.6h-1.53v6.81h-2.66V39.93h2.66v6.49h1.53V39.93h2.66Z" transform="translate(-1.87 -1.93)"/><path class="cls-1" d="M122.53,55.45h-2.68V39.93h2.68Z" transform="translate(-1.87 -1.93)"/><path class="cls-1" d="M128.39,55.65c-2,0-3.24-1-3.24-3.29V43c0-2.24,1.25-3.37,3.2-3.37,1.77,0,3.06.62,3.06,3.41a15.9,15.9,0,0,1-.16,2.12l-2-.16a11.42,11.42,0,0,0,.14-1.65c0-1.45-.34-1.65-.83-1.65s-.7.2-.7,1v9.87c0,.71.18,1,.79,1,.44,0,.75-.3.75-1.77a12.76,12.76,0,0,0-.14-1.65l2.06-.16a14.23,14.23,0,0,1,.16,2.14C131.43,55,130.14,55.65,128.39,55.65Z" transform="translate(-1.87 -1.93)"/><path class="cls-1" d="M144.25,52.16c0,2.46-1.25,3.24-3.37,3.24h-3.35V39.93h3.29c2.24,0,3.43.85,3.43,3.51Zm-2.68-9c0-.89-.26-1.09-.83-1.09h-.52V53.27h.48c.65,0,.87-.26.87-1Z" transform="translate(-1.87 -1.93)"/><path class="cls-1" d="M152.31,55.41h-5.44V39.93h5.42v2.14h-2.74v4.29h2.28v2.18h-2.28v4.74h2.76Z" transform="translate(-1.87 -1.93)"/><path class="cls-1" d="M160.71,52.1c0,2.48-1.29,3.55-3.24,3.55s-2.9-1.27-2.9-3.51a15.54,15.54,0,0,1,.16-2.18l2,.24a13.05,13.05,0,0,0-.14,1.71c0,1.31.22,1.65.71,1.65s.69-.34.69-1.29v-.42a5.57,5.57,0,0,0-1.63-3.79,6.6,6.6,0,0,1-1.83-4.62v-.24c0-2,.79-3.55,3.08-3.55s2.88,1.39,2.88,3.51a13.28,13.28,0,0,1-.14,1.91l-2-.24a8.6,8.6,0,0,0,.1-1.45c0-1.35-.2-1.67-.62-1.67s-.58.3-.58,1.21v.32a4.83,4.83,0,0,0,1.29,3,9.15,9.15,0,0,1,2.22,5.54Z" transform="translate(-1.87 -1.93)"/><path class="cls-1" d="M165.85,55.45h-2.68V39.93h2.68Z" transform="translate(-1.87 -1.93)"/><path class="cls-1" d="M175.1,55.41h-.73l-.4-.66a3,3,0,0,1-2.52.91,2.76,2.76,0,0,1-3-3.1V43.11c0-2.3,1.29-3.45,3.29-3.45,1.83,0,3,.73,3,3.47a13.51,13.51,0,0,1-.14,2l-2-.16a9.82,9.82,0,0,0,.12-1.53c0-1.47-.32-1.69-.77-1.69-.6,0-.77.32-.77,1v10c0,.58.22.89.75.89s.64-.3.64-.89V48h2.56Z" transform="translate(-1.87 -1.93)"/><path class="cls-1" d="M183.93,55.45h-2l-2-8v8h-2.22V39.93H180l1.71,6.87V39.93h2.22Z" transform="translate(-1.87 -1.93)"/><path class="cls-1" d="M192.15,55.41h-5.44V39.93h5.42v2.14h-2.74v4.29h2.28v2.18h-2.28v4.74h2.76Z" transform="translate(-1.87 -1.93)"/><path class="cls-1" d="M198.64,55.45a2.82,2.82,0,0,1-.2-.93c0-1.35,0-1.85-.06-2.84,0-2.32-.36-2.56-.69-2.56h-.38v6.33h-2.68V39.93H198c2.16,0,3.3,1.23,3.3,4.07,0,2.16-.18,3.3-1.53,4,1.17.75,1.29,2.56,1.29,3.55v1.17a10.06,10.06,0,0,0,.26,2.76Zm-1-13.38h-.36V47h.34c.6,0,1-.48,1-2.56S198.26,42.07,197.67,42.07Z" transform="translate(-1.87 -1.93)"/><path class="cls-2" d="M85.91,32.67H84.58l-.74-1.22c-1,1.18-2.32,1.66-4.6,1.66-3.32,0-5.45-1.88-5.45-5.67V10.2c0-4.2,2.36-6.3,6-6.3,3.35,0,5.45,1.33,5.45,6.34A24.67,24.67,0,0,1,85,13.85l-3.72-.29a17.92,17.92,0,0,0,.22-2.8c0-2.69-.59-3.09-1.4-3.09-1.1,0-1.4.59-1.4,1.88V27.81c0,1.07.41,1.62,1.36,1.62.77,0,1.18-.55,1.18-1.62V19.11h4.68Z" transform="translate(-1.87 -1.93)"/><path class="cls-2" d="M95.63,32.74h-4.9V4.38h4.9Z" transform="translate(-1.87 -1.93)"/><path class="cls-2" d="M112,32.74h-3.61l-3.65-14.55V32.74h-4.05V4.38h4.13L108,16.94V4.38H112Z" transform="translate(-1.87 -1.93)"/><path class="cls-2" d="M129,32.67H124l-.37-3.94h-2.91l-.37,3.94h-4.09l3.65-28.29h5.27Zm-5.78-7.88-.88-11.27-1.14,11.27Z" transform="translate(-1.87 -1.93)"/><path class="cls-2" d="M150.73,26.63c0,4.53-2.36,6.48-5.93,6.48-3.79,0-5.3-2.32-5.3-6.41a28.54,28.54,0,0,1,.29-4l3.68.44a23.85,23.85,0,0,0-.26,3.13c0,2.39.41,3,1.29,3s1.25-.63,1.25-2.36v-.77c0-2.1-.59-4-3-6.92s-3.35-5.19-3.35-8.43v-.44c0-3.68,1.44-6.48,5.64-6.48,4,0,5.27,2.54,5.27,6.41a24.26,24.26,0,0,1-.26,3.5l-3.72-.44a15.85,15.85,0,0,0,.18-2.65c0-2.47-.37-3.06-1.14-3.06s-1.07.55-1.07,2.21v.59c0,1.62.63,3.28,2.36,5.49,2.43,3.13,4.05,6.52,4.05,10.13Z" transform="translate(-1.87 -1.93)"/><path class="cls-2" d="M160.86,33.11c-3.65,0-5.93-1.84-5.93-6V10.05c0-4.09,2.28-6.15,5.86-6.15,3.24,0,5.6,1.14,5.6,6.22a29,29,0,0,1-.3,3.87l-3.72-.29a20.86,20.86,0,0,0,.26-3c0-2.65-.63-3-1.51-3s-1.29.37-1.29,1.8v18c0,1.29.33,1.88,1.44,1.88.81,0,1.36-.55,1.36-3.24a23.3,23.3,0,0,0-.26-3l3.76-.29a26,26,0,0,1,.29,3.9C166.42,31.93,164.06,33.11,160.86,33.11Z" transform="translate(-1.87 -1.93)"/><path class="cls-2" d="M183.47,32.74h-4.86V20.22h-2.8V32.67h-4.86V4.38h4.86V16.24h2.8V4.38h4.86Z" transform="translate(-1.87 -1.93)"/><path class="cls-2" d="M206.53,4.38,203.1,32.74h-4.46l-1.55-14.4-1.58,14.4h-4.42L187.78,4.38h4.94l1.18,15,1.51-15h3.39l1.58,15.36,1.22-15.36Z" transform="translate(-1.87 -1.93)"/><path class="cls-2" d="M220.59,32.67h-9.95V4.38h9.91v3.9h-5v7.85h4.16v4h-4.16v8.66h5Z" transform="translate(-1.87 -1.93)"/><path class="cls-2" d="M230,32.74h-4.9V4.38H230Z" transform="translate(-1.87 -1.93)"/><path class="cls-2" d="M245.6,32.67h-11V29.32l6-21.07h-5.45V4.38H245.6V7.73l-5.75,21h5.75Z" transform="translate(-1.87 -1.93)"/><path class="cls-2" d="M260.15,32.67H250.2V4.38h9.91v3.9h-5v7.85h4.16v4H255.1v8.66h5Z" transform="translate(-1.87 -1.93)"/><path class="cls-2" d="M272,32.74a5.16,5.16,0,0,1-.37-1.69c-.07-2.47-.07-3.39-.11-5.19-.07-4.24-.66-4.68-1.25-4.68h-.7V32.74h-4.9V4.38h6.12c3.94,0,6,2.25,6,7.44,0,3.94-.33,6-2.8,7.26,2.14,1.36,2.36,4.68,2.36,6.48V27.7a18.4,18.4,0,0,0,.48,5ZM270.24,8.28h-.66v9h.63c1.11,0,1.84-.88,1.84-4.68S271.31,8.28,270.24,8.28Z" transform="translate(-1.87 -1.93)"/><circle class="cls-3" cx="27.36" cy="27.36" r="27.36"/><path class="cls-4" d="M15,32.11c-.6-.27-1.29-.58-1.29-1.51a2.43,2.43,0,0,1,.22-.93l1.81-1v-.14c-1.54-.85-2.47-1.56-2.47-3.54a4.11,4.11,0,0,1,1.13-2.69,9.43,9.43,0,0,1,4.39-1.73,4.94,4.94,0,0,1,3,.8h1a7.18,7.18,0,0,0,2-.19l.16.11a2.31,2.31,0,0,0-.14.85v.33l-.11.14h-2a2.59,2.59,0,0,1,.44,1.56c0,2.94-2.22,4.61-5.9,4.61h-.77a1.86,1.86,0,0,0-.6,1.29c0,1,1.67,1,2.66,1a21.22,21.22,0,0,1,3.62.11A2.65,2.65,0,0,1,24.57,34c0,2.64-2.25,5.55-6.59,5.55-2.8,0-5.52-1.48-5.52-4.45a3.2,3.2,0,0,1,.41-1.67Zm.93.19-.33.14c-.49.22-1.51.77-1.51,2.75,0,.93.69,3.51,4.23,3.51a3.88,3.88,0,0,0,4.23-3.82c0-2.28-2.09-2.36-3.65-2.42C18.11,32.44,16.16,32.33,15.89,32.31Zm2.17-10.93a2.79,2.79,0,0,0-2.77,3c0,1.65.93,3.54,2.94,3.54,1.13,0,2.72-.58,2.72-3.16C20.94,23.11,20.12,21.38,18.06,21.38Z" transform="translate(-1.87 -1.93)"/><path class="cls-4" d="M28.77,30a1.43,1.43,0,1,1-1.43,1.43A1.42,1.42,0,0,1,28.77,30Z" transform="translate(-1.87 -1.93)"/><path class="cls-4" d="M34.34,29.15l.08.08.3,1.4a3.88,3.88,0,0,0,2.55,1,2.33,2.33,0,0,0,2.58-2.33c0-1.76-1.15-1.87-2.94-2.06-1.32-.14-3.43-.36-3.43-2.91,0-1.48.88-2,1.92-2.75A4,4,0,0,1,38,20.53a7.77,7.77,0,0,1,2.86.55,5.64,5.64,0,0,0-.22,1.48v.93l-.08.19-.47.08-.08-.14a2.31,2.31,0,0,0-2.58-2,2.09,2.09,0,0,0-2.25,2c0,1.92,2,2,3.07,2.06,1.4.05,3.29.19,3.29,2.66A3.12,3.12,0,0,1,40.35,31c-.55.49-2.33,2-4.06,2a5.85,5.85,0,0,1-2.58-.69,12.71,12.71,0,0,0,.16-1.78V29.31Z" transform="translate(-1.87 -1.93)"/><path class="cls-4" d="M45.3,30a1.43,1.43,0,1,1-1.43,1.43A1.42,1.42,0,0,1,45.3,30Z" transform="translate(-1.87 -1.93)"/><path class="cls-4" d="M17,46.14c-4.08,0-6.14-1.13-6.14-5.7h.48c.65,2.87,2.71,3.35,5.33,3.35H24c2.46,0,4.48.32,5.25,3.39h.08c.77-3.07,2.79-3.39,5.21-3.39h7.31c2.63,0,4.69-.48,5.33-3.35h.48c0,4.57-2.06,5.7-6.14,5.7H33.87c-2.26,0-3.8.44-4.61,3-.81-2.55-2.34-3-4.65-3Z" transform="translate(-1.87 -1.93)"/><path class="cls-4" d="M41.43,12.85c4.08,0,6.14,1.13,6.14,5.7h-.48c-.65-2.87-2.71-3.35-5.33-3.35H34.48c-2.46,0-4.48-.32-5.25-3.39h-.08c-.77,3.07-2.79,3.39-5.21,3.39H16.62c-2.63,0-4.69.48-5.33,3.35h-.48c0-4.57,2.06-5.7,6.14-5.7h7.64c2.26,0,3.8-.44,4.61-3,.81,2.55,2.34,3,4.65,3Z" transform="translate(-1.87 -1.93)"/></svg>