<?xml version="1.0" encoding="utf-8"?>
<!-- Generator: Adobe Illustrator 20.1.0, SVG Export Plug-In . SVG Version: 6.00 Build 0)  -->
<svg version="1.1" xmlns="http://www.w3.org/2000/svg" xmlns:xlink="http://www.w3.org/1999/xlink" x="0px" y="0px"
	 viewBox="0 0 272.9 165.1" enable-background="new 0 0 272.9 165.1" xml:space="preserve">
<g id="art">
	<text transform="matrix(1 -4.010000e-03 4.010000e-03 1 31.6989 125.6134)"><tspan x="0" y="0" font-family="'MrLackboughs'" font-size="11.2902px">	</tspan><tspan x="1.5" y="0" font-family="'MrLackboughs'" font-size="11.2902px">Graphic Designer</tspan></text>
	<g>
		
			<text transform="matrix(1 -4.010000e-03 4.010000e-03 1 21.7049 113.5911)" font-family="'TrajanPro-Regular'" font-size="9.5614px">Gina Schweizer</text>
	</g>
	<g>
		<radialGradient id="SVGID_1_" cx="61.0691" cy="64.0313" r="24.7841" gradientUnits="userSpaceOnUse">
			<stop  offset="0" style="stop-color:#FFFFFF"/>
			<stop  offset="1" style="stop-color:#C2B560"/>
		</radialGradient>
		<path fill="url(#SVGID_1_)" d="M82.9,71.4c0-11.9-9.7-21.5-21.6-21.5c-11.9,0-21.6,9.6-21.6,21.5c0,1.8,0.2,3.5,0.6,5.1
			c20.4,0,34.4,0,41.9,0C82.7,74.9,82.9,73.2,82.9,71.4z"/>
		<radialGradient id="SVGID_2_" cx="61.0691" cy="64.0313" r="24.7841" gradientUnits="userSpaceOnUse">
			<stop  offset="0" style="stop-color:#FFFFFF"/>
			<stop  offset="1" style="stop-color:#C2B560"/>
		</radialGradient>
		<path fill="url(#SVGID_2_)" d="M82.9,71.4c0-11.9-9.7-21.5-21.6-21.5c-11.9,0-21.6,9.6-21.6,21.5c0,1.8,0.2,3.5,0.6,5.1
			c20.4,0,34.4,0,41.9,0C82.7,74.9,82.9,73.2,82.9,71.4z"/>
		<polygon fill="#007550" enable-background="new    " points="20.7,76.4 102.2,76.4 102.2,88.2 20.7,88.2 20.7,76.4 		"/>
		<path fill="#FFFFFF" d="M22.6,79c0.4,0,0.7,0.1,0.8,0.4c0.2,0.4,0.2,2.6,0.2,3.1c0,1.4,0,2.5-0.1,3.2c0,0.3-0.1,0.4-0.7,0.5l0,0.2
			c0.5,0,1,0,1.1,0h0.6c0.8,0,1,0,1.3,0v-0.2c-1.3-0.2-1.3-0.3-1.3-1.5c0-0.8,0-1.4,0-2c0.4,0,0.7,0,1.1,0c0.9,0,1.7,0.1,1.8,0.3
			c0.1,0.1,0.1,0.5,0.1,0.7h0.2c0-0.6,0-1.1,0-1.2c0-0.4,0-0.5,0-0.7c-0.1,0-0.1,0-0.2,0c0,0.6,0,0.8-1.7,0.8c-0.6,0-0.8,0-1.3-0.1
			v-0.9c0-0.3,0-1.5,0-2.2c0.3-0.1,0.9-0.1,1.3-0.1c2.1,0,2.1,0.4,2.2,1.1h0.2c0-0.5,0-1,0-1.5c-0.6,0-1.7,0.1-2.7,0.1
			c-0.2,0-0.7,0-1.1,0c-0.5,0-0.9,0-1.1,0l-0.8,0V79L22.6,79z"/>
		<path fill="#FFFFFF" d="M34.5,84.7c-0.4,1.1-0.9,1.4-2.8,1.4c-1,0-1.3-0.1-1.5-0.2c-0.1-0.7-0.1-1.9-0.1-2.4l0-0.8
			c0.2,0,0.5-0.1,1.1-0.1c1.9,0,2.2,0,2.2,1.1h0.2c0-1,0-1.6,0-2.2l-0.2,0c-0.2,0.8-0.3,0.8-0.7,0.8c-0.4,0-1.1,0.1-1.7,0.1
			c-0.4,0-0.7,0-0.9,0c0-0.2,0-1,0-1.5c0-0.7,0.1-1.2,0.1-1.7c0.5-0.1,1-0.1,1.8-0.1c0.6,0,1.8,0,1.8,0.7c0,0.1,0,0.4,0,0.4
			c0,0.1,0.1,0.1,0.1,0.1c0.2,0,0.3-1.1,0.3-1.5c-0.6,0-1.5,0-1.9,0h-3.8c0,0.1,0,0.1,0,0.2c0.7,0.1,0.8,0.1,0.8,1.8l0,1.9
			c0,0.4,0,2.5-0.1,3.1c-0.1,0.5-0.1,0.5-0.8,0.7l0,0.2c0.8,0,2.1-0.1,3.2-0.1c0,0,0.6,0,1.2,0s1.2,0,1.5,0c0.3-0.5,0.4-0.9,0.5-1.8
			H34.5L34.5,84.7z"/>
		<path fill-rule="evenodd" clip-rule="evenodd" fill="#FFFFFF" d="M38.3,83.8c1,1.5,2.2,3,3.9,3c0.3,0,0.3,0,0.3-0.1
			c0-0.1,0-0.1-0.1-0.1c-1.2-0.1-2.3-1.8-3.4-3.5l-0.3-0.4c1.2-0.4,1.6-1.2,1.6-2c0-1-0.9-2-2.6-2c-0.3,0-1.9,0.1-2.2,0.1
			c-0.2,0-0.5,0-0.8,0c0,0.1,0,0.1,0,0.2c0.8,0.1,0.9,0.1,0.8,2.5v2.6c0,1.9-0.1,2-0.6,2.1c-0.2,0.1-0.2,0.1-0.2,0.2s0,0.1,0.1,0.1
			c0,0,0.1,0,0.1,0c0.5-0.1,0.9-0.1,1.2-0.1c0.1,0,0.4,0,0.6,0.1c0.2,0,0.5,0.1,0.5,0.1c0.1,0,0.1-0.1,0.1-0.1s0-0.1-0.1-0.1
			c-0.4-0.1-0.6-0.2-0.7-0.4c-0.1-0.3-0.1-1.4-0.1-1.8l0-1.4c0.4,0.1,0.8,0.1,1.3,0.1L38.3,83.8L38.3,83.8z M36.4,82.4
			c0-1,0-2.9,0.1-3.2c0.1-0.2,0.7-0.3,1-0.3c1.4,0,1.9,1.2,1.9,1.9c0,1.6-1.7,1.6-2.1,1.6C36.8,82.5,36.5,82.5,36.4,82.4L36.4,82.4z
			"/>
		<path fill="#FFFFFF" d="M48.6,82.7c-0.8,0.1-1.5,0.1-2.7,0.1l0,0.3c0.1,0,0.2,0,0.4,0c1,0,1.1,0.1,1.1,1.5c0,1.1,0,1.1-0.1,1.2
			c-0.1,0.2-0.8,0.6-1.8,0.6c-2.3,0-3.5-2.1-3.5-3.7c0-1.7,1.2-3.5,3.3-3.5c1.6,0,2.2,0.9,2.5,1.4c0,0.1,0,0.1,0.1,0.1
			c0.1,0,0.1,0,0.1-0.1c0-0.4-0.2-1.1-0.2-1.5c0-0.1,0-0.2-0.1-0.2c-0.1,0-0.3,0.3-0.4,0.3c0,0-0.3-0.1-0.3-0.1
			c-0.1,0-0.7-0.2-1.4-0.2c-2.3,0-4.5,1.4-4.5,3.9c0,1.8,1.2,3.9,4.3,3.9c0.5,0,1.1,0,2.3-0.2c0.1,0,0.7-0.1,0.8-0.2l0.1-0.1
			c-0.2-0.2-0.3-0.2-0.3-1.2c0-1.3,0-1.4,0.1-1.6c0.1-0.2,0.2-0.2,0.4-0.3V82.7L48.6,82.7z"/>
		<path fill="#FFFFFF" d="M48.5,79.1c0.7,0.1,0.7,0.1,0.7,0.3c0.1,0.4,0.2,1.3,0.2,2.2c0,0.4,0,2.2,0,2.6c0,1.9,1.5,2.5,3,2.5
			c0.6,0,2.5-0.1,3.1-1.2c0.4-0.7,0.5-2.1,0.5-5.1c0-1,0-1.1,0.8-1.1v-0.2c-0.4,0-1.3,0-1.7,0c-0.1,0-0.4,0-0.6,0l0,0.2
			c0.8,0,1,0,1,2.1c0,1,0,2.8-0.3,3.7c-0.4,1.1-1.9,1.2-2.5,1.2c-0.4,0-2.1-0.1-2.4-1.5c-0.1-0.5-0.1-1.4-0.1-2.5
			c0-0.5,0-2.4,0.2-2.8c0.1-0.2,0.2-0.3,1-0.4l-0.1-0.2c-1,0-1,0-2,0c-0.3,0-0.6,0-0.9,0L48.5,79.1L48.5,79.1z"/>
		<path fill="#FFFFFF" d="M57.2,86.5c0-0.1,0-0.2,0.1-0.2c0,0,0.1,0,0.2,0c0.9,0.2,1.6,0.2,1.7,0.2c1.8,0,2.6-0.9,2.6-2
			c0-1.5-1.3-2-2.3-2.3c-1-0.4-1.8-0.7-1.8-1.7c0-0.2,0.1-1.5,1.6-1.5c0.6,0,1.9,0.2,2,1.5l0.2,0c0-0.1-0.1-0.7-0.1-0.8
			c0,0,0.1-0.7,0.1-0.9c0,0-0.1,0-0.1,0c0,0,0,0,0,0c-0.1,0-0.2,0.1-0.4,0.1c0,0-0.1,0-0.3,0c-0.6-0.1-1-0.1-1.2-0.1
			c-1.7,0-2.5,1-2.5,2.1c0,1.2,0.9,1.7,2.1,2.1c1.1,0.4,1.9,0.7,1.9,1.9c0,1.3-1.3,1.3-1.5,1.3c-0.9,0-1.6-0.3-2-0.5
			c-0.5-0.3-0.5-0.5-0.8-1.3c-0.1,0-0.1,0-0.2,0c0.2,0.5,0.3,1.3,0.3,2L57.2,86.5L57.2,86.5z"/>
		<path fill="#FFFFFF" d="M69.5,79c1.1,0.1,1.1,0.9,1,2.5l0,2.8c0,1.7-0.1,1.9-0.7,2c-0.1,0-0.2,0-0.2,0.1c0,0.1,0,0.1,0.2,0.1
			c0.1,0,0.4,0,0.7-0.1c0.3,0,0.6,0,0.7,0c0.1,0,0.3,0,0.6,0c0.2,0,0.5,0,0.6,0c0-0.1,0-0.1,0-0.2C71,86,70.9,86,71,83.8l0.1-3.6
			c0,0,1.4,1.4,1.6,1.5l2.2,2.1c0.5,0.5,2.1,1.9,2.5,2.8l0.2,0c0-0.6-0.1-1.8-0.1-2.5c0-1,0-3.8,0.2-4.6c0.1-0.3,0.2-0.5,0.7-0.5
			l0-0.2l-0.7,0c-0.1,0-0.3,0-0.6,0c-0.3,0-0.7,0-0.8,0c-0.1,0-0.2,0-0.3,0L76,78.9c1,0.2,1.2,0.2,1.2,2.5v1.1c0,0.8,0,1.5,0,2.2
			l-3.5-3.3c-0.4-0.4-1.8-1.7-2.6-2.7l-0.5,0c-0.3,0-0.3,0-1,0V79L69.5,79z"/>
		<path fill-rule="evenodd" clip-rule="evenodd" fill="#E2DBA2" d="M81.2,83.2h1.5c0.6,0,0.8,0.2,0.8,0.7c0,0.6-0.4,0.7-0.9,0.7
			h-1.4V83.2L81.2,83.2z M78.8,86.5h4.4c1.4,0,2.7-0.8,2.7-2.4c0-1.1-0.6-1.7-1.3-1.9c0.6-0.3,1-0.7,1-1.5c0-0.8-0.4-1.9-2.5-1.9
			h-4.2V86.5L78.8,86.5z M81.2,80.6h1.3c0.5,0,0.8,0.1,0.8,0.5c0,0.5-0.3,0.6-0.8,0.6h-1.3V80.6L81.2,80.6z"/>
		<path fill-rule="evenodd" clip-rule="evenodd" fill="#E2DBA2" d="M86,82.6c0,2.4,1.6,4.1,3.9,4.1c2.4,0,3.9-1.7,3.9-4.1
			c0-2.4-1.6-4.1-3.9-4.1C87.5,78.5,86,80.2,86,82.6L86,82.6z M88.3,82.6c0-1.7,0.9-2.1,1.5-2.1c0.6,0,1.5,0.4,1.5,2.1
			c0,1.7-0.9,2.1-1.5,2.1C89.3,84.7,88.3,84.3,88.3,82.6L88.3,82.6z"/>
		<polygon fill="#E2DBA2" points="92.8,86.5 95.5,86.5 96.9,84.1 98.2,86.5 101.1,86.5 98.3,82.4 100.8,78.7 98.1,78.7 97,80.8 
			95.8,78.7 93,78.7 95.6,82.3 92.8,86.5 		"/>
		<linearGradient id="SVGID_3_" gradientUnits="userSpaceOnUse" x1="49.9222" y1="72.4781" x2="57.4297" y2="59.4748">
			<stop  offset="0" style="stop-color:#007550"/>
			<stop  offset="1" style="stop-color:#92C0B1"/>
		</linearGradient>
		<polygon fill="url(#SVGID_3_)" points="46.8,70.7 46.8,60.9 44.6,54.5 60.7,61.4 62.2,67.6 62.2,67.6 62.2,78.4 46.8,70.7 		"/>
		<path fill="#007550" d="M40,58.7c-0.5-0.3-0.9,0-1.3,0.3c-0.3,0.2-0.6,0.4-0.9,0.3c-0.1-0.1-0.2-0.1-0.2-0.3c0-0.1,0-0.2,0.1-0.4
			c0.1-0.1,0.2-0.2,0.3-0.3c0.1,0,0.3,0,0.5,0.1l0,0l0.2-0.4l0,0c-0.3-0.2-0.5-0.2-0.8-0.2c-0.2,0.1-0.4,0.2-0.6,0.5
			c-0.3,0.5-0.1,1.1,0.4,1.3c0.5,0.3,0.9,0,1.3-0.3c0.3-0.2,0.6-0.4,0.9-0.3c0.1,0.1,0.2,0.2,0.3,0.3c0,0.1,0,0.3-0.1,0.4
			c0,0.1-0.1,0.2-0.3,0.3c-0.1,0-0.3,0-0.4-0.1L39.1,60l-0.2,0.4l0,0c0.1,0.1,0.5,0.3,0.8,0.2c0.2-0.1,0.4-0.3,0.6-0.6
			C40.6,59.5,40.5,59,40,58.7z"/>
		<polygon fill="#007550" points="40.9,53.3 40.9,53.3 40.6,53.6 43.1,55.9 43.4,55.5 		"/>
		<path fill="#007550" d="M48.3,51.3l-1.9-2.8l0,0L46,48.8c0,0,1.4,2.1,1.6,2.2C47.4,51,45,49.5,45,49.5l-0.5,0.4l1.9,2.8l0.4-0.3
			c0,0-1.5-2.1-1.6-2.3c0.2,0.1,2.6,1.6,2.6,1.6L48.3,51.3z"/>
		<path fill="#007550" d="M53.4,47.8L53.4,47.8L52.9,48l0,0c0.2,0.6-0.1,0.7-0.2,0.8c-0.1,0-0.3,0.1-0.4,0c-0.2-0.1-0.3-0.3-0.4-0.6
			l-0.3-0.8c-0.2-0.5-0.2-0.6-0.2-0.6c0-0.1,0-0.3,0.4-0.4c0.1,0,0.3-0.1,0.4,0c0.1,0.1,0.2,0.3,0.2,0.4l0,0l0.5-0.2l0,0
			c-0.1-0.3-0.3-0.6-0.5-0.7c-0.2-0.1-0.4-0.1-0.7,0c-0.3,0.1-0.6,0.3-0.7,0.5c-0.1,0.3-0.1,0.6,0.1,1l0.3,0.9
			c0.2,0.5,0.4,0.8,0.7,0.9c0.3,0.1,0.6,0,0.8-0.1c0.1,0,0.4-0.2,0.6-0.5C53.5,48.5,53.5,48.2,53.4,47.8z"/>
		<path fill="#007550" d="M59.3,47.2c0,0-1.2,0.2-1.3,0.2c0-0.1-0.1-1-0.1-1.1c0.1,0,1.2-0.1,1.2-0.1L59,45.7c0,0-1.1,0.1-1.2,0.1
			c0-0.1-0.1-0.9-0.1-1c0.1,0,1.3-0.2,1.3-0.2l-0.1-0.4l0,0l-1.7,0.2l0.4,3.4l1.8-0.2L59.3,47.2z"/>
		<path fill="#007550" d="M68.7,45.3c-0.2,0.1-0.5,0.2-0.6,0.2l0,0L68,46c0,0,0.4-0.2,0.5-0.2c0,0.1-0.7,2.6-0.7,2.6l0.5,0.1
			l0.8-3.2L68.7,45.3z"/>
		<path fill="#007550" d="M79.8,51.9l0.3-0.3l-1.2-1l0,0L77.7,52l0.3,0.3l0,0c0.1-0.1,0.3-0.2,0.5,0c0.1,0.1,0.1,0.1,0.1,0.2
			c0,0.2-0.1,0.4-0.4,0.6c-0.1,0.2-0.3,0.3-0.5,0.3c-0.1,0-0.2,0-0.3-0.1c-0.1-0.1-0.1-0.1-0.1-0.2c0-0.1,0-0.2,0.1-0.4l0,0
			l-0.4-0.3l0,0c-0.3,0.3-0.5,0.7,0.1,1.2c0.2,0.2,0.4,0.3,0.6,0.3c0.3,0,0.6-0.3,0.8-0.5c0.3-0.3,0.4-0.6,0.4-0.9
			c0-0.2-0.1-0.3-0.2-0.4c-0.1-0.1-0.3-0.2-0.5-0.2c0.1-0.1,0.5-0.6,0.5-0.6C79,51.2,79.8,51.9,79.8,51.9z"/>
		<path fill="#007550" d="M83.6,55.4c-0.3-0.3-0.8-0.5-1.3-0.1c-0.8,0.6-0.5,1.1-0.3,1.2c0.1,0.2,0.3,0.3,0.5,0.3
			c-0.4,0.3-0.7,0.5-0.9,0.5c-0.1,0-0.1-0.1-0.2-0.1c-0.1-0.1-0.1-0.1-0.1-0.2c0-0.1,0.1-0.3,0.2-0.3l0,0l-0.3-0.4l0,0
			c-0.2,0.2-0.3,0.4-0.4,0.6c0,0.2,0,0.4,0.2,0.6c0.2,0.2,0.3,0.3,0.5,0.3c0.4,0.1,0.9-0.3,1.3-0.7c0,0,0,0,0,0
			c0.5-0.4,0.9-0.7,1-1.1C83.8,55.8,83.7,55.6,83.6,55.4z M83.3,55.9c0,0.1-0.1,0.3-0.3,0.5c-0.2,0.2-0.4,0.2-0.5,0.2
			c-0.1,0-0.2-0.1-0.2-0.1c-0.2-0.2-0.1-0.4,0.3-0.7c0.2-0.2,0.4-0.2,0.5-0.2c0.1,0,0.2,0.1,0.2,0.1C83.3,55.7,83.4,55.8,83.3,55.9z
			"/>
		<path fill="#007550" d="M74.7,47.6c-0.4-0.2-0.9-0.2-1.3,0.4c-0.5,0.8,0,1.2,0.1,1.3c0.2,0.1,0.4,0.1,0.6,0.1
			c-0.3,0.4-0.5,0.8-0.7,0.8c-0.1,0-0.2,0-0.2,0c-0.1,0-0.1-0.1-0.1-0.2c0-0.1,0-0.3,0.1-0.4l0,0l-0.4-0.2l0,0
			c-0.1,0.2-0.2,0.5-0.1,0.7c0,0.2,0.2,0.4,0.4,0.5c0.2,0.1,0.4,0.2,0.6,0.1c0.4-0.1,0.7-0.6,1-1.1c0,0,0,0,0,0
			c0.3-0.5,0.6-1,0.5-1.4C75.1,47.9,74.9,47.8,74.7,47.6z M74.7,48.2c0,0.1,0,0.3-0.1,0.5c-0.1,0.2-0.3,0.4-0.4,0.4
			c-0.1,0-0.2,0-0.3,0c-0.2-0.1-0.2-0.4,0-0.7c0.1-0.2,0.3-0.4,0.4-0.4c0.1,0,0.2,0,0.3,0C74.6,48,74.7,48.1,74.7,48.2z"/>
		<g>
			<path fill="#006241" stroke="#006241" stroke-width="0.1297" d="M26,93.3V90h1.4h0.1c0.4,0,0.6,0.1,0.8,0.2
				c0.1,0.1,0.2,0.4,0.2,0.8c0,0.4-0.1,0.6-0.2,0.8C28.2,92,27.9,92,27.5,92l-0.1,0h-1v1.3H26z M26.4,91.7h0.9c0.4,0,0.6,0,0.7-0.1
				c0.1-0.1,0.2-0.2,0.2-0.5c0-0.3,0-0.5-0.1-0.6c-0.1-0.1-0.2-0.1-0.5-0.1l-0.1,0h-1V91.7z"/>
			<path fill="#006241" stroke="#006241" stroke-width="0.1297" d="M32,92.6h-1.7l-0.3,0.7h-0.4l1.2-3.3h0.5l1.2,3.3h-0.4L32,92.6z
				 M31.9,92.4l-0.7-2l-0.7,2H31.9z"/>
			<path fill="#006241" stroke="#006241" stroke-width="0.1297" d="M36.1,92.2h0.4v0.1c0,0.5-0.1,0.7-0.2,0.8
				c-0.2,0.1-0.5,0.2-1.2,0.2c-0.6,0-0.9-0.1-1.1-0.3c-0.2-0.2-0.2-0.7-0.2-1.4c0-0.6,0-0.9,0.1-1.1c0-0.1,0.1-0.3,0.3-0.4
				c0.2-0.1,0.6-0.2,1.2-0.2c0.4,0,0.7,0.1,0.9,0.2c0.1,0.1,0.2,0.4,0.2,0.8l0,0.1h-0.4l0-0.1c0-0.3,0-0.4-0.1-0.5
				c-0.1-0.1-0.3-0.1-0.6-0.1c-0.5,0-0.9,0-1,0.1c-0.1,0.1-0.2,0.3-0.2,0.7c0,0.9,0,1.5,0.1,1.6c0.1,0.2,0.3,0.2,0.8,0.2
				c0.4,0,0.7,0,0.8-0.1c0.1-0.1,0.2-0.2,0.2-0.5L36.1,92.2z"/>
			<path fill="#006241" stroke="#006241" stroke-width="0.1297" d="M38.3,90v1.4h0.3L40,90h0.5L39,91.6l1.7,1.7h-0.5l-1.5-1.5h-0.3
				v1.5h-0.4V90H38.3z"/>
			<path fill="#006241" stroke="#006241" stroke-width="0.1297" d="M43.9,92.6h-1.7L42,93.3h-0.4l1.2-3.3h0.5l1.2,3.3h-0.4
				L43.9,92.6z M43.8,92.4l-0.7-2l-0.7,2H43.8z"/>
			<path fill="#006241" stroke="#006241" stroke-width="0.1297" d="M47.1,91.7h1.4c0,0.1,0,0.2,0,0.4c0,0.6-0.1,1-0.2,1.1
				c-0.1,0.1-0.5,0.2-1.1,0.2c-0.6,0-1-0.1-1.1-0.3c-0.2-0.2-0.2-0.5-0.2-1.1v-0.5v-0.3c0-0.5,0.1-0.8,0.3-1
				c0.2-0.2,0.6-0.2,1.1-0.2c0.6,0,0.9,0.1,1.1,0.2c0.2,0.1,0.2,0.3,0.2,0.7V91h-0.4v-0.1c0-0.3-0.1-0.4-0.2-0.5
				c-0.1-0.1-0.4-0.1-0.9-0.1c-0.4,0-0.7,0.1-0.8,0.2c-0.1,0.1-0.2,0.4-0.2,0.8l0,0.4v0.5c0,0.4,0.1,0.7,0.2,0.8
				c0.1,0.1,0.4,0.1,1,0.1c0.4,0,0.6,0,0.7-0.1c0.1-0.1,0.1-0.3,0.1-0.7c0,0,0-0.1,0-0.2h-1.1V91.7z"/>
			<path fill="#006241" stroke="#006241" stroke-width="0.1297" d="M50.4,90v3.3H50V90H50.4z"/>
			<path fill="#006241" stroke="#006241" stroke-width="0.1297" d="M54.8,90v3.3h-0.6l-1.4-2.3l-0.2-0.4l-0.1-0.2l-0.1-0.2h0l0,0.1
				l0,0.1v0.2v2.5H52V90h0.6l1.2,2l0.3,0.5l0.2,0.3l0.2,0.3h0l0-0.1l0-0.1v-0.2V90H54.8z"/>
			<path fill="#006241" stroke="#006241" stroke-width="0.1297" d="M57.6,91.7h1.4c0,0.1,0,0.2,0,0.4c0,0.6-0.1,1-0.2,1.1
				c-0.1,0.1-0.5,0.2-1.1,0.2c-0.6,0-1-0.1-1.1-0.3c-0.2-0.2-0.3-0.5-0.3-1.1l0-0.5l0-0.3c0-0.5,0.1-0.8,0.3-1
				c0.2-0.2,0.6-0.2,1.1-0.2c0.6,0,0.9,0.1,1.1,0.2c0.2,0.1,0.2,0.3,0.2,0.7V91h-0.4v-0.1c0-0.3-0.1-0.4-0.2-0.5
				c-0.1-0.1-0.4-0.1-0.9-0.1c-0.4,0-0.7,0.1-0.8,0.2c-0.1,0.1-0.2,0.4-0.2,0.8l0,0.4l0,0.5c0,0.4,0.1,0.7,0.2,0.8
				c0.1,0.1,0.4,0.1,1,0.1c0.4,0,0.6,0,0.7-0.1c0.1-0.1,0.1-0.3,0.1-0.7c0,0,0-0.1,0-0.2h-1.1V91.7z"/>
			<path fill="#006241" stroke="#006241" stroke-width="0.1297" d="M62.8,93.3V90h1.5c0.5,0,0.8,0.1,1,0.3c0.2,0.2,0.3,0.6,0.3,1.2
				c0,0.7-0.1,1.2-0.2,1.4c-0.1,0.2-0.4,0.4-0.9,0.4H62.8z M63.1,93h1.1c0.4,0,0.7-0.1,0.8-0.2c0.1-0.2,0.2-0.5,0.2-1.1
				c0-0.6-0.1-1-0.1-1.1c-0.1-0.2-0.3-0.2-0.7-0.2h-1.2V93z"/>
			<path fill="#006241" stroke="#006241" stroke-width="0.1297" d="M68.2,90c0.6,0,1,0.1,1.2,0.3c0.2,0.2,0.2,0.6,0.2,1.4
				c0,0.8-0.1,1.3-0.2,1.5c-0.2,0.2-0.5,0.3-1.2,0.3c-0.6,0-1-0.1-1.2-0.3c-0.2-0.2-0.2-0.7-0.2-1.4v-0.2l0-0.3
				c0-0.4,0.1-0.7,0.3-0.9C67.3,90.1,67.7,90,68.2,90z M68.2,90.3c-0.5,0-0.8,0.1-0.9,0.2c-0.1,0.1-0.1,0.5-0.1,1.2
				c0,0.7,0,1.1,0.1,1.2c0.1,0.1,0.4,0.2,0.9,0.2c0.5,0,0.8-0.1,0.9-0.2c0.1-0.1,0.1-0.5,0.1-1.2v-0.2l0-0.3c0-0.4-0.1-0.6-0.2-0.7
				C68.9,90.4,68.7,90.3,68.2,90.3z"/>
			<path fill="#006241" stroke="#006241" stroke-width="0.1297" d="M73.9,90v3.3h-0.6l-1.4-2.3l-0.2-0.4l-0.1-0.2l-0.1-0.2h0l0,0.1
				l0,0.1v0.2v2.5H71V90h0.6l1.2,2l0.3,0.5l0.2,0.3l0.2,0.3h0v-0.1l0-0.1v-0.2V90H73.9z"/>
			<path fill="#006241" stroke="#006241" stroke-width="0.1297" d="M75.7,90.4v1.1h1.7v0.3h-1.7V93h1.8v0.3h-2.1V90h2.1v0.3H75.7z"
				/>
			<path fill="#006241" stroke="#006241" stroke-width="0.1297" d="M81.2,93.3V90h1.6c0.4,0,0.6,0.1,0.8,0.2
				c0.1,0.1,0.2,0.4,0.2,0.7c0,0.3,0,0.5-0.1,0.6c-0.1,0.1-0.2,0.2-0.5,0.2v0c0.4,0,0.5,0.2,0.5,0.6v0.8h-0.4v-0.8
				c0-0.4-0.2-0.6-0.5-0.6h-0.1h-1.1v1.3H81.2z M81.6,91.7h1.1c0.3,0,0.5,0,0.6-0.1c0.1-0.1,0.2-0.2,0.2-0.5c0-0.3,0-0.5-0.1-0.6
				c-0.1-0.1-0.2-0.1-0.5-0.1h-1.2V91.7z"/>
			<path fill="#006241" stroke="#006241" stroke-width="0.1297" d="M85.6,90v3.3h-0.4V90H85.6z"/>
			<path fill="#006241" stroke="#006241" stroke-width="0.1297" d="M88.5,91.7h1.4c0,0.1,0,0.2,0,0.4c0,0.6-0.1,1-0.2,1.1
				c-0.1,0.1-0.5,0.2-1.1,0.2c-0.6,0-1-0.1-1.1-0.3c-0.2-0.2-0.2-0.5-0.2-1.1l0-0.5l0-0.3c0-0.5,0.1-0.8,0.3-1
				c0.2-0.2,0.6-0.2,1.1-0.2c0.6,0,0.9,0.1,1.1,0.2c0.2,0.1,0.2,0.3,0.2,0.7V91h-0.4v-0.1c0-0.3-0.1-0.4-0.2-0.5
				c-0.1-0.1-0.4-0.1-0.9-0.1c-0.4,0-0.7,0.1-0.8,0.2c-0.1,0.1-0.2,0.4-0.2,0.8l0,0.4v0.5c0,0.4,0.1,0.7,0.2,0.8
				c0.1,0.1,0.4,0.1,1,0.1c0.4,0,0.6,0,0.7-0.1c0.1-0.1,0.1-0.3,0.1-0.7c0,0,0-0.1,0-0.2h-1.1V91.7z"/>
			<path fill="#006241" stroke="#006241" stroke-width="0.1297" d="M94,90v3.3h-0.4v-1.5h-1.9v1.5h-0.4V90h0.4v1.5h1.9V90H94z"/>
			<path fill="#006241" stroke="#006241" stroke-width="0.1297" d="M96.8,90.4v3h-0.4v-3h-1.1V90h2.5v0.3H96.8z"/>
		</g>
		<path fill-rule="evenodd" clip-rule="evenodd" fill="#FFFFFF" d="M66.3,78.7c-2.2,0-4.1,1.8-4.1,4c0,0.7,0.2,1.5,0.6,2.1v0
			c0.6,1,1.7,1.8,3.3,1.8c1.5,0,2.8-0.7,3.5-1.8l0,0c0.4-0.6,0.6-1.4,0.6-2.2C70.2,80.2,68.2,78.7,66.3,78.7z M68.9,84.8L68.9,84.8
			c-0.5,1-1.5,1.4-2.3,1.4c-1,0-2-0.6-2.6-1.4c0,0,0,0,0,0h0c-0.5-0.7-0.9-1.6-0.9-2.6c0-2,1.4-3.1,2.8-3.1c1.9,0,3.4,1.8,3.4,4
			C69.3,83.8,69.2,84.3,68.9,84.8z"/>
		<polygon fill="#007550" points="74.8,63.2 74.8,63.3 74.9,63.2 74.9,63.2 		"/>
		<path fill="#007550" d="M58.1,52.6l0.4,5.6l-2.6,0.5l-12-5.2l0.3,0.7c0,0,2.1,6.3,2.2,6.4c0,0.1,0,9.9,0,9.9l16.1,8.1V78l12.4-4.7
			V63.2l3.2-5.4L58.1,52.6z M45.1,54.8c1.3,0.6,15,6.4,15.3,6.5c0.1,0.3,1.1,4.8,1.4,5.8L47,60.7c0-0.1,0-0.1,0-0.1v-0.1
			C47,60.5,45.5,56,45.1,54.8z M61.8,77.5C60.8,77,47.4,70.3,47,70.1c0-0.3,0-6.7,0-8.8l14.7,6.5C61.8,69.6,61.8,76.6,61.8,77.5z
			 M62.4,67.1c-0.2-0.7-1.5-6.3-1.5-6.3L56.8,59l2.5-0.6l15.5,4.7L62.4,67.1z"/>
		<polygon fill="#FFFFFF" points="59.3,58.5 56.8,59 60.9,60.8 62.4,67.1 74.8,63.2 		"/>
	</g>
	<g>
		<text transform="matrix(1 0 0 1 70.9879 146.1679)" font-family="'TrajanPro-Regular'" font-size="6.9634px">Industrial Packaging Services &amp; supplies</text>
	</g>
	<g>
		<text transform="matrix(1 0 0 1 118.4568 102.8075)" font-family="'TrajanPro-Regular'" font-size="7.4604px">T: 704.927.5358  Ext. 122</text>
		<text transform="matrix(0.85 0 0 1 118.4568 111.7601)" font-family="'TrajanPro-Regular'" font-size="7.4604px">gschweizer@fergusonbox.com</text>
	</g>
	<g>
		<text transform="matrix(1 0 0 1 118.4566 61.1424)"><tspan x="0" y="0" font-family="'TrajanPro-Regular'" font-size="7.4604px">10820 Quality Drive</tspan><tspan x="0" y="9" font-family="'TrajanPro-Regular'" font-size="7.4604px">Charlotte, NC 28278</tspan></text>
	</g>
	<g>
		
			<text transform="matrix(1 5.500000e-03 -5.500000e-03 1 118.4873 120.5532)" font-family="'TrajanPro-Regular'" font-size="7.4604px">www.FergusonBox.com</text>
	</g>
	<polygon fill="#9ABEAD" points="271.9,38.6 0,38.6 31.5,0 271.9,0 	"/>
	<polygon fill="#5B977E" points="272.9,128.5 236.3,165.1 236.3,38.5 272,1.6 	"/>
</g>
<g id="Structure">
	<path fill="none" stroke="#000000" stroke-width="2.016" stroke-linejoin="round" stroke-miterlimit="10" d="M261.1,125.6
		L232.7,154c-0.4,0.4-1,0.6-1.5,0.6H11.9c-1.2,0-2.2-1-2.2-2.2V41.9c0-0.6,0.2-1.1,0.6-1.5l28-29.1c0.4-0.4,1-0.7,1.6-0.7h219.7
		c1.2,0,2.2,1,2.2,2.2v111.2C261.7,124.7,261.5,125.2,261.1,125.6"/>
	
		<line fill="none" stroke="#000000" stroke-width="2.016" stroke-linejoin="round" stroke-miterlimit="10" x1="33.7" y1="23.8" x2="42.7" y2="23.8"/>
	
		<line fill="none" stroke="#000000" stroke-width="2.016" stroke-linejoin="round" stroke-miterlimit="10" x1="51.7" y1="23.8" x2="60.7" y2="23.8"/>
	
		<line fill="none" stroke="#000000" stroke-width="2.016" stroke-linejoin="round" stroke-miterlimit="10" x1="69.7" y1="23.8" x2="78.7" y2="23.8"/>
	
		<line fill="none" stroke="#000000" stroke-width="2.016" stroke-linejoin="round" stroke-miterlimit="10" x1="87.7" y1="23.8" x2="96.7" y2="23.8"/>
	
		<line fill="none" stroke="#000000" stroke-width="2.016" stroke-linejoin="round" stroke-miterlimit="10" x1="105.7" y1="23.8" x2="114.7" y2="23.8"/>
	
		<line fill="none" stroke="#000000" stroke-width="2.016" stroke-linejoin="round" stroke-miterlimit="10" x1="123.7" y1="23.8" x2="132.7" y2="23.8"/>
	
		<line fill="none" stroke="#000000" stroke-width="2.016" stroke-linejoin="round" stroke-miterlimit="10" x1="141.7" y1="23.8" x2="150.7" y2="23.8"/>
	
		<line fill="none" stroke="#000000" stroke-width="2.016" stroke-linejoin="round" stroke-miterlimit="10" x1="159.7" y1="23.8" x2="168.7" y2="23.8"/>
	
		<line fill="none" stroke="#000000" stroke-width="2.016" stroke-linejoin="round" stroke-miterlimit="10" x1="177.7" y1="23.8" x2="186.7" y2="23.8"/>
	
		<line fill="none" stroke="#000000" stroke-width="2.016" stroke-linejoin="round" stroke-miterlimit="10" x1="195.7" y1="23.8" x2="204.7" y2="23.8"/>
	
		<line fill="none" stroke="#000000" stroke-width="2.016" stroke-linejoin="round" stroke-miterlimit="10" x1="213.7" y1="23.8" x2="222.7" y2="23.8"/>
	
		<line fill="none" stroke="#000000" stroke-width="2.016" stroke-linejoin="round" stroke-miterlimit="10" x1="231.7" y1="23.8" x2="240.7" y2="23.8"/>
	<path fill="none" stroke="#000000" stroke-width="2.016" stroke-linejoin="round" stroke-miterlimit="10" d="M261.1,125.6
		L232.7,154c-0.4,0.4-1,0.6-1.5,0.6H11.9c-1.2,0-2.2-1-2.2-2.2V41.9c0-0.6,0.2-1.1,0.6-1.5l28-29.1c0.4-0.4,1-0.7,1.6-0.7h219.7
		c1.2,0,2.2,1,2.2,2.2v111.2C261.7,124.7,261.5,125.2,261.1,125.6"/>
	
		<line fill="none" stroke="#000000" stroke-width="2.016" stroke-linejoin="round" stroke-miterlimit="10" x1="33.7" y1="23.8" x2="42.7" y2="23.8"/>
	
		<line fill="none" stroke="#000000" stroke-width="2.016" stroke-linejoin="round" stroke-miterlimit="10" x1="51.7" y1="23.8" x2="60.7" y2="23.8"/>
	
		<line fill="none" stroke="#000000" stroke-width="2.016" stroke-linejoin="round" stroke-miterlimit="10" x1="69.7" y1="23.8" x2="78.7" y2="23.8"/>
	
		<line fill="none" stroke="#000000" stroke-width="2.016" stroke-linejoin="round" stroke-miterlimit="10" x1="87.7" y1="23.8" x2="96.7" y2="23.8"/>
	
		<line fill="none" stroke="#000000" stroke-width="2.016" stroke-linejoin="round" stroke-miterlimit="10" x1="105.7" y1="23.8" x2="114.7" y2="23.8"/>
	
		<line fill="none" stroke="#000000" stroke-width="2.016" stroke-linejoin="round" stroke-miterlimit="10" x1="123.7" y1="23.8" x2="132.7" y2="23.8"/>
	
		<line fill="none" stroke="#000000" stroke-width="2.016" stroke-linejoin="round" stroke-miterlimit="10" x1="141.7" y1="23.8" x2="150.7" y2="23.8"/>
	
		<line fill="none" stroke="#000000" stroke-width="2.016" stroke-linejoin="round" stroke-miterlimit="10" x1="159.7" y1="23.8" x2="168.7" y2="23.8"/>
	
		<line fill="none" stroke="#000000" stroke-width="2.016" stroke-linejoin="round" stroke-miterlimit="10" x1="177.7" y1="23.8" x2="186.7" y2="23.8"/>
	
		<line fill="none" stroke="#000000" stroke-width="2.016" stroke-linejoin="round" stroke-miterlimit="10" x1="195.7" y1="23.8" x2="204.7" y2="23.8"/>
	
		<line fill="none" stroke="#000000" stroke-width="2.016" stroke-linejoin="round" stroke-miterlimit="10" x1="213.7" y1="23.8" x2="222.7" y2="23.8"/>
	
		<line fill="none" stroke="#000000" stroke-width="2.016" stroke-linejoin="round" stroke-miterlimit="10" x1="231.7" y1="23.8" x2="240.7" y2="23.8"/>
</g>
</svg>
