<?xml version="1.0" encoding="utf-8"?>
<!-- Generator: Adobe Illustrator 20.1.0, SVG Export Plug-In . SVG Version: 6.00 Build 0)  -->
<svg version="1.1" id="Layer_1" xmlns="http://www.w3.org/2000/svg" xmlns:xlink="http://www.w3.org/1999/xlink" x="0px" y="0px"
	 viewBox="0 0 169 42" enable-background="new 0 0 169 42" xml:space="preserve">
<title>about-title</title>
<g enable-background="new    ">
	<path fill="#FFFFFF" d="M81.6,28.9c-0.4-0.4-0.7-1.1-0.7-2V12.3h1.9v14.1c0,0.5,0.1,0.9,0.2,1.1c0.2,0.2,0.5,0.3,0.9,0.3
		c0.4,0,0.7,0,1-0.1v1.7c-0.5,0.1-1,0.1-1.3,0.1C82.7,29.5,82,29.3,81.6,28.9z"/>
	<path fill="#FFFFFF" d="M89.5,26.8c0.6,0.7,1.5,1.1,2.8,1.1c1,0,2-0.3,3.2-0.8l0.6,1.6c-1.2,0.6-2.5,0.9-3.9,0.9
		c-1.2,0-2.2-0.2-3-0.7c-0.8-0.5-1.5-1.2-1.9-2.1s-0.6-1.9-0.6-3.1c0-1.2,0.2-2.3,0.7-3.2s1-1.5,1.8-2c0.8-0.5,1.6-0.7,2.6-0.7
		c1.5,0,2.6,0.5,3.4,1.4c0.8,0.9,1.2,2.2,1.2,3.9v0.7h-7.7C88.6,25.1,88.9,26.1,89.5,26.8z M88.7,22.3h5.6c-0.1-0.9-0.3-1.6-0.8-2.1
		c-0.4-0.4-1.1-0.7-1.9-0.7C90,19.6,89,20.5,88.7,22.3z"/>
	<path fill="#FFFFFF" d="M101.2,20.1v6.3c0,0.5,0.1,0.9,0.2,1.1s0.5,0.3,0.9,0.3c0.4,0,0.8-0.1,1.3-0.2v1.7
		c-0.6,0.1-1.1,0.2-1.6,0.2c-1,0-1.7-0.2-2.1-0.6c-0.4-0.4-0.6-1.1-0.6-2.1v-6.7h-1.4v-1.7h1.4v-3.8h1.9v3.8h2.6v1.7H101.2z"/>
	<path fill="#FFFFFF" d="M107.6,29.4c-0.6-0.1-1.3-0.4-2-0.7v-1.9c1.3,0.7,2.6,1.1,4.1,1.1c0.7,0,1.3-0.2,1.6-0.5
		c0.3-0.3,0.5-0.7,0.5-1.2c0-0.5-0.1-0.8-0.4-1.1s-0.7-0.4-1.3-0.6l-1.3-0.3c-0.9-0.2-1.7-0.6-2.2-1.1c-0.5-0.5-0.8-1.2-0.8-2.2
		c0-1,0.3-1.8,1-2.3s1.6-0.8,2.9-0.8c0.7,0,1.3,0.1,1.8,0.2c0.6,0.1,1.1,0.3,1.7,0.5v1.8c-0.5-0.3-1.1-0.4-1.6-0.6
		c-0.5-0.1-1.1-0.2-1.8-0.2c-0.7,0-1.2,0.1-1.5,0.4c-0.3,0.3-0.5,0.6-0.5,1c0,0.5,0.1,0.8,0.4,1c0.3,0.2,0.7,0.4,1.2,0.6l1.3,0.3
		c0.7,0.2,1.2,0.4,1.6,0.6c0.4,0.2,0.8,0.6,1,1c0.2,0.4,0.4,1,0.4,1.7c0,1.1-0.4,1.9-1.1,2.5s-1.7,0.9-2.9,0.9
		C109,29.6,108.3,29.5,107.6,29.4z"/>
	<path fill="#FFFFFF" d="M121.8,28.9c-0.4-0.4-0.7-1.1-0.7-2V12.3h1.9v14.1c0,0.5,0.1,0.9,0.2,1.1c0.2,0.2,0.5,0.3,0.9,0.3
		c0.4,0,0.7,0,1-0.1v1.7c-0.5,0.1-1,0.1-1.3,0.1C122.9,29.5,122.2,29.3,121.8,28.9z"/>
	<path fill="#FFFFFF" d="M129.7,26.8c0.6,0.7,1.5,1.1,2.8,1.1c1,0,2-0.3,3.2-0.8l0.6,1.6c-1.2,0.6-2.5,0.9-3.9,0.9
		c-1.2,0-2.2-0.2-3-0.7c-0.8-0.5-1.5-1.2-1.9-2.1s-0.6-1.9-0.6-3.1c0-1.2,0.2-2.3,0.7-3.2s1-1.5,1.8-2c0.8-0.5,1.6-0.7,2.6-0.7
		c1.5,0,2.6,0.5,3.4,1.4c0.8,0.9,1.2,2.2,1.2,3.9v0.7h-7.7C128.8,25.1,129.1,26.1,129.7,26.8z M128.9,22.3h5.6
		c-0.1-0.9-0.3-1.6-0.8-2.1c-0.4-0.4-1.1-0.7-1.9-0.7C130.2,19.6,129.2,20.5,128.9,22.3z"/>
	<path fill="#FFFFFF" d="M145.3,18.8c0.6,0.4,1,0.9,1.2,1.6c0.2,0.7,0.3,1.5,0.3,2.5v6.4h-1.9v-1.1c-0.5,0.5-1,0.8-1.5,1
		c-0.5,0.2-1.1,0.3-1.6,0.3c-0.7,0-1.3-0.1-1.9-0.5c-0.6-0.3-1-0.7-1.3-1.3c-0.3-0.6-0.5-1.2-0.5-2c0-1.2,0.4-2.1,1.1-2.8
		c0.7-0.7,1.8-1,3-1c1,0,1.9,0.2,2.7,0.7c0-0.7-0.1-1.2-0.2-1.6s-0.4-0.7-0.7-0.9c-0.4-0.2-0.9-0.3-1.7-0.3h-1.5v-1.7h1.8
		C143.8,18.2,144.7,18.4,145.3,18.8z M143.4,27.6c0.5-0.2,1-0.5,1.5-1v-2.5c-0.7-0.4-1.6-0.6-2.4-0.6c-0.7,0-1.3,0.2-1.8,0.5
		c-0.5,0.3-0.7,0.9-0.7,1.7c0,0.7,0.2,1.3,0.6,1.6c0.4,0.3,0.9,0.5,1.4,0.5C142.5,27.9,142.9,27.8,143.4,27.6z"/>
	<path fill="#FFFFFF" d="M155.6,18v1.8h-0.5c-1.1,0-2.3,0.5-3.3,1.4v8.2h-1.9V18.2h1.9v1.2c1.1-1,2.2-1.5,3.3-1.5H155.6z"/>
	<path fill="#FFFFFF" d="M166.3,19c0.7,0.7,1,1.9,1,3.6v6.7h-1.9v-6.7c0-1-0.2-1.8-0.5-2.2c-0.4-0.4-1-0.7-1.9-0.7
		c-1,0-2.1,0.5-3.1,1.4v8.2H158V18.2h1.9v1.2c1.1-0.9,2.2-1.4,3.4-1.4C164.6,18,165.6,18.3,166.3,19z"/>
</g>
<g enable-background="new    ">
	<path fill="#FFFFFF" d="M8.5,18.3c0.7,0.4,1.1,0.9,1.4,1.6s0.3,1.5,0.3,2.5v6.5H7.5v-1c-0.5,0.5-1,0.8-1.5,1s-1,0.3-1.5,0.3
		c-1.2,0-2.1-0.3-2.8-1c-0.7-0.7-1.1-1.6-1.1-2.8c0-1.2,0.4-2.1,1.1-2.8c0.7-0.7,1.8-1,3-1c1.1,0,2,0.2,2.7,0.6
		c0-0.5-0.1-0.9-0.2-1.2c-0.1-0.3-0.3-0.5-0.7-0.7C6.3,20.1,5.9,20,5.2,20H3.3v-2.3h2.2C6.8,17.7,7.8,17.9,8.5,18.3z M7.5,25.9v-1.8
		c-0.7-0.4-1.4-0.5-2.2-0.5c-0.6,0-1.1,0.1-1.4,0.4c-0.4,0.3-0.6,0.7-0.6,1.3c0,0.6,0.2,1,0.5,1.3C4.1,26.9,4.5,27,5,27
		C5.8,27,6.7,26.7,7.5,25.9z"/>
	<path fill="#FFFFFF" d="M21.5,18.1c0.8,0.4,1.4,1.1,1.8,2s0.6,2,0.6,3.3c0,1.3-0.2,2.4-0.6,3.3s-1,1.5-1.8,2
		c-0.8,0.4-1.6,0.7-2.6,0.7c-1.1,0-2.1-0.4-3.1-1.2v0.9h-2.7V12h2.7v6.6c1-0.8,2-1.2,3.1-1.2C19.9,17.4,20.8,17.6,21.5,18.1z
		 M20.5,25.9c0.5-0.6,0.7-1.5,0.7-2.6s-0.2-2-0.7-2.6c-0.5-0.6-1.2-0.9-2.1-0.9c-0.9,0-1.7,0.3-2.6,1v5c0.9,0.7,1.7,1,2.6,1
		C19.3,26.8,20,26.5,20.5,25.9z"/>
	<path fill="#FFFFFF" d="M28.4,28.5c-0.9-0.5-1.5-1.2-2-2.1c-0.4-0.9-0.6-1.9-0.6-3c0-1.1,0.2-2.1,0.6-3c0.4-0.9,1.1-1.6,2-2.1
		c0.9-0.5,1.9-0.8,3.2-0.8c1.2,0,2.3,0.3,3.1,0.8c0.9,0.5,1.5,1.2,1.9,2.1c0.4,0.9,0.6,1.9,0.6,3c0,1.1-0.2,2.1-0.6,3
		c-0.4,0.9-1.1,1.6-1.9,2.1c-0.9,0.5-1.9,0.8-3.1,0.8C30.3,29.2,29.3,29,28.4,28.5z M33.7,25.9c0.5-0.6,0.8-1.5,0.8-2.6
		c0-1.1-0.3-2-0.8-2.6c-0.5-0.6-1.2-1-2.2-1c-1,0-1.7,0.3-2.2,1c-0.5,0.6-0.8,1.5-0.8,2.6c0,1.1,0.3,2,0.8,2.6c0.5,0.6,1.2,1,2.2,1
		C32.5,26.9,33.2,26.6,33.7,25.9z"/>
	<path fill="#FFFFFF" d="M49.9,17.7v11.2h-2.7v-1c-1,0.9-2.1,1.3-3.3,1.3c-1.4,0-2.5-0.4-3.2-1.1c-0.7-0.7-1-1.9-1-3.6v-6.7h2.7v6.7
		c0,0.8,0.2,1.4,0.5,1.7c0.3,0.4,0.9,0.5,1.6,0.5c0.9,0,1.8-0.4,2.7-1.2v-7.8H49.9z"/>
	<path fill="#FFFFFF" d="M56.3,20.4v5.1c0,0.5,0.1,0.8,0.2,1c0.2,0.2,0.5,0.3,0.9,0.3s0.8-0.1,1.2-0.2v2.3c-0.8,0.2-1.4,0.2-1.9,0.2
		c-1.1,0-1.9-0.2-2.4-0.7c-0.5-0.5-0.7-1.2-0.7-2.2v-5.9h-1.5V18h1.5v-3.8h2.7V18h2.6v2.4H56.3z"/>
</g>
<g>
	<rect x="69.7" fill="#FFFFFF" width="1" height="42"/>
</g>
<text transform="matrix(1 0 0 1 79.1 -70.74)" fill="#FFFFFF" font-family="'Biryani-Regular'" font-size="20px">lets learn</text>
<text transform="matrix(1 0 0 1 0 -71.09)" fill="#FFFFFF" font-family="'Biryani-Bold'" font-size="20px">about</text>
<line fill="none" stroke="#FFFFFF" stroke-miterlimit="10" x1="70.2" y1="-100" x2="70.2" y2="-58"/>
</svg>
