<?xml version="1.0" encoding="utf-8"?>
<!-- Generator: Adobe Illustrator 20.1.0, SVG Export Plug-In . SVG Version: 6.00 Build 0)  -->
<svg version="1.1" id="Layer_1" xmlns="http://www.w3.org/2000/svg" xmlns:xlink="http://www.w3.org/1999/xlink" x="0px" y="0px"
	 viewBox="0 0 172.1 42" enable-background="new 0 0 172.1 42" xml:space="preserve">
<g>
	<g>
		<g enable-background="new    ">
			<path fill="#FFFFFF" d="M98.2,28.8c-0.4-0.4-0.7-1.1-0.7-2V12.2h1.9v14.1c0,0.5,0.1,0.9,0.2,1.1c0.2,0.2,0.5,0.3,0.9,0.3
				c0.4,0,0.7,0,1-0.1v1.7c-0.5,0.1-1,0.1-1.3,0.1C99.3,29.4,98.6,29.2,98.2,28.8z"/>
			<path fill="#FFFFFF" d="M106.1,26.7c0.6,0.7,1.5,1.1,2.8,1.1c1,0,2-0.3,3.2-0.8l0.6,1.6c-1.2,0.6-2.5,0.9-3.9,0.9
				c-1.2,0-2.2-0.2-3-0.7c-0.8-0.5-1.5-1.2-1.9-2.1s-0.6-1.9-0.6-3.1c0-1.2,0.2-2.3,0.7-3.2s1-1.5,1.8-2c0.8-0.5,1.6-0.7,2.6-0.7
				c1.5,0,2.6,0.5,3.4,1.4c0.8,0.9,1.2,2.2,1.2,3.9v0.7h-7.7C105.2,25,105.5,26,106.1,26.7z M105.3,22.2h5.6
				c-0.1-0.9-0.3-1.6-0.8-2.1c-0.4-0.4-1.1-0.7-1.9-0.7C106.6,19.5,105.6,20.4,105.3,22.2z"/>
			<path fill="#FFFFFF" d="M117.8,20v6.3c0,0.5,0.1,0.9,0.2,1.1s0.5,0.3,0.9,0.3c0.4,0,0.8-0.1,1.3-0.2v1.7
				c-0.6,0.1-1.1,0.2-1.6,0.2c-1,0-1.7-0.2-2.1-0.6c-0.4-0.4-0.6-1.1-0.6-2.1V20h-1.4v-1.7h1.4v-3.8h1.9v3.8h2.6V20H117.8z"/>
			<path fill="#FFFFFF" d="M124.2,29.3c-0.6-0.1-1.3-0.4-2-0.7v-1.9c1.3,0.7,2.6,1.1,4.1,1.1c0.7,0,1.3-0.2,1.6-0.5
				c0.3-0.3,0.5-0.7,0.5-1.2c0-0.5-0.1-0.8-0.4-1.1s-0.7-0.4-1.3-0.6l-1.3-0.3c-0.9-0.2-1.7-0.6-2.2-1.1c-0.5-0.5-0.8-1.2-0.8-2.2
				c0-1,0.3-1.8,1-2.3s1.6-0.8,2.9-0.8c0.7,0,1.3,0.1,1.8,0.2c0.6,0.1,1.1,0.3,1.7,0.5v1.8c-0.5-0.3-1.1-0.4-1.6-0.6
				c-0.5-0.1-1.1-0.2-1.8-0.2c-0.7,0-1.2,0.1-1.5,0.4c-0.3,0.3-0.5,0.6-0.5,1c0,0.5,0.1,0.8,0.4,1c0.3,0.2,0.7,0.4,1.2,0.6l1.3,0.3
				c0.7,0.2,1.2,0.4,1.6,0.6c0.4,0.2,0.8,0.6,1,1c0.2,0.4,0.4,1,0.4,1.7c0,1.1-0.4,1.9-1.1,2.5s-1.7,0.9-2.9,0.9
				C125.6,29.5,124.9,29.4,124.2,29.3z"/>
			<path fill="#FFFFFF" d="M140,20v6.3c0,0.5,0.1,0.9,0.2,1.1c0.2,0.2,0.5,0.3,0.9,0.3c0.4,0,0.8-0.1,1.3-0.2v1.7
				c-0.6,0.1-1.1,0.2-1.6,0.2c-1,0-1.7-0.2-2.1-0.6c-0.4-0.4-0.6-1.1-0.6-2.1V20h-1.4v-1.7h1.4v-3.8h1.9v3.8h2.6V20H140z"/>
			<path fill="#FFFFFF" d="M151.3,18.7c0.6,0.4,1,0.9,1.2,1.6c0.2,0.7,0.3,1.5,0.3,2.5v6.4h-1.9v-1.1c-0.5,0.5-1,0.8-1.5,1
				c-0.5,0.2-1.1,0.3-1.6,0.3c-0.7,0-1.3-0.1-1.9-0.5c-0.6-0.3-1-0.7-1.3-1.3c-0.3-0.6-0.5-1.2-0.5-2c0-1.2,0.4-2.1,1.1-2.8
				c0.7-0.7,1.8-1,3-1c1,0,1.9,0.2,2.7,0.7c0-0.7-0.1-1.2-0.2-1.6c-0.1-0.4-0.4-0.7-0.7-0.9c-0.4-0.2-0.9-0.3-1.7-0.3h-1.5v-1.7h1.8
				C149.7,18.1,150.6,18.3,151.3,18.7z M149.4,27.5c0.5-0.2,1-0.5,1.5-1V24c-0.7-0.4-1.6-0.6-2.4-0.6c-0.7,0-1.3,0.2-1.8,0.5
				c-0.5,0.3-0.7,0.9-0.7,1.7c0,0.7,0.2,1.3,0.6,1.6c0.4,0.3,0.9,0.5,1.4,0.5C148.4,27.8,148.9,27.7,149.4,27.5z"/>
			<path fill="#FFFFFF" d="M156.5,28.8c-0.4-0.4-0.7-1.1-0.7-2V12.2h1.9v14.1c0,0.5,0.1,0.9,0.2,1.1s0.5,0.3,1,0.3
				c0.4,0,0.7,0,1-0.1v1.7c-0.5,0.1-1,0.1-1.3,0.1C157.7,29.4,157,29.2,156.5,28.8z"/>
			<path fill="#FFFFFF" d="M165.3,24.1l-1.2,1.2v3.9h-1.9V12.2h1.9v10.7l4.5-4.7h2.4l-4.4,4.5l5,6.4h-2.3L165.3,24.1z"/>
		</g>
	</g>
	<g>
		<g enable-background="new    ">
			<path fill="#FFFFFF" d="M2.4,27.6c-1-1-1.4-2.5-1.4-4.4c0-1.8,0.5-3.3,1.4-4.3c1-1,2.3-1.6,4.1-1.6c0.6,0,1.2,0,1.6,0.1
				s0.9,0.2,1.4,0.4v2.5c-0.5-0.2-1-0.4-1.4-0.5c-0.4-0.1-0.9-0.1-1.4-0.1c-2,0-3,1.2-3,3.5c0,2.4,1,3.6,3,3.6c1,0,1.9-0.3,2.9-0.9
				l0.8,2.2c-1.2,0.7-2.5,1-3.9,1C4.7,29.1,3.3,28.6,2.4,27.6z"/>
			<path fill="#FFFFFF" d="M14.4,28.4c-0.9-0.5-1.5-1.2-2-2.1c-0.4-0.9-0.6-1.9-0.6-3c0-1.1,0.2-2.1,0.6-3c0.4-0.9,1.1-1.6,2-2.1
				c0.9-0.5,1.9-0.8,3.2-0.8c1.2,0,2.3,0.3,3.1,0.8c0.9,0.5,1.5,1.2,1.9,2.1c0.4,0.9,0.6,1.9,0.6,3c0,1.1-0.2,2.1-0.6,3
				c-0.4,0.9-1.1,1.6-1.9,2.1c-0.9,0.5-1.9,0.8-3.1,0.8C16.4,29.1,15.3,28.9,14.4,28.4z M19.8,25.8c0.5-0.6,0.8-1.5,0.8-2.6
				c0-1.1-0.3-2-0.8-2.6c-0.5-0.6-1.2-1-2.2-1c-1,0-1.7,0.3-2.2,1c-0.5,0.6-0.8,1.5-0.8,2.6c0,1.1,0.3,2,0.8,2.6
				c0.5,0.6,1.2,1,2.2,1C18.5,26.8,19.3,26.5,19.8,25.8z"/>
			<path fill="#FFFFFF" d="M35,18.5c0.7,0.7,1,1.9,1,3.6v6.7h-2.7v-6.7c0-0.8-0.2-1.4-0.5-1.7c-0.3-0.4-0.9-0.5-1.6-0.5
				c-0.9,0-1.8,0.4-2.7,1.2v7.8h-2.7V17.6h2.7v1c1-0.9,2.1-1.3,3.3-1.3C33.2,17.4,34.3,17.8,35,18.5z"/>
			<path fill="#FFFFFF" d="M42.4,20.3v5.1c0,0.5,0.1,0.8,0.2,1c0.2,0.2,0.5,0.3,0.9,0.3s0.8-0.1,1.2-0.2v2.3
				c-0.8,0.2-1.4,0.2-1.9,0.2c-1.1,0-1.9-0.2-2.4-0.7c-0.5-0.5-0.7-1.2-0.7-2.2v-5.9h-1.5v-2.4h1.5v-3.8h2.7v3.8h2.6v2.4H42.4z"/>
			<path fill="#FFFFFF" d="M54.2,18.2c0.7,0.4,1.1,0.9,1.4,1.6s0.3,1.5,0.3,2.5v6.5h-2.7v-1c-0.5,0.5-1,0.8-1.5,1s-1,0.3-1.5,0.3
				c-1.2,0-2.1-0.3-2.8-1c-0.7-0.7-1.1-1.6-1.1-2.8c0-1.2,0.4-2.1,1.1-2.8c0.7-0.7,1.8-1,3-1c1.1,0,2,0.2,2.7,0.6
				c0-0.5-0.1-0.9-0.2-1.2c-0.1-0.3-0.3-0.5-0.7-0.7c-0.3-0.2-0.8-0.2-1.5-0.2H49v-2.3h2.2C52.5,17.6,53.5,17.8,54.2,18.2z
				 M53.2,25.8V24c-0.7-0.4-1.4-0.5-2.2-0.5c-0.6,0-1.1,0.1-1.4,0.4c-0.4,0.3-0.6,0.7-0.6,1.3c0,0.6,0.2,1,0.5,1.3
				c0.3,0.3,0.7,0.4,1.2,0.4C51.5,26.9,52.3,26.5,53.2,25.8z"/>
			<path fill="#FFFFFF" d="M59.5,27.6c-1-1-1.4-2.5-1.4-4.4c0-1.8,0.5-3.3,1.4-4.3c1-1,2.3-1.6,4.1-1.6c0.6,0,1.2,0,1.6,0.1
				s0.9,0.2,1.4,0.4v2.5c-0.5-0.2-1-0.4-1.4-0.5c-0.4-0.1-0.9-0.1-1.4-0.1c-2,0-3,1.2-3,3.5c0,2.4,1,3.6,3,3.6c1,0,1.9-0.3,2.9-0.9
				l0.8,2.2c-1.2,0.7-2.5,1-3.9,1C61.9,29.1,60.5,28.6,59.5,27.6z"/>
			<path fill="#FFFFFF" d="M72.9,20.3v5.1c0,0.5,0.1,0.8,0.2,1c0.2,0.2,0.5,0.3,0.9,0.3s0.8-0.1,1.2-0.2v2.3
				c-0.8,0.2-1.4,0.2-1.9,0.2c-1.1,0-1.9-0.2-2.4-0.7c-0.5-0.5-0.7-1.2-0.7-2.2v-5.9h-1.5v-2.4h1.5v-3.8h2.7v3.8h2.6v2.4H72.9z"/>
		</g>
	</g>
	<g>
		<rect x="86.6" fill="#FFFFFF" width="1" height="42"/>
	</g>
</g>
<g>
	<g>
		<text transform="matrix(1 0 0 1 95.6977 -50.8498)" fill="#FFFFFF" font-family="'Biryani-Regular'" font-size="20px">lets talk</text>
	</g>
	<g>
		<text transform="matrix(1 0 0 1 -1.831055e-04 -51.1974)" fill="#FFFFFF" font-family="'Biryani-Bold'" font-size="20px">contact</text>
	</g>
	<line fill="none" stroke="#FFFFFF" stroke-miterlimit="10" x1="87.1" y1="-80" x2="87.1" y2="-38"/>
</g>
</svg>
