<?xml version="1.0" encoding="utf-8"?>
<!-- Generator: Adobe Illustrator 20.1.0, SVG Export Plug-In . SVG Version: 6.00 Build 0)  -->
<svg version="1.1" id="Layer_1" xmlns="http://www.w3.org/2000/svg" xmlns:xlink="http://www.w3.org/1999/xlink" x="0px" y="0px"
	 viewBox="0 0 328.5 56" enable-background="new 0 0 328.5 56" xml:space="preserve">
<title>header-logo</title>
<g enable-background="new    ">
	<path fill="#555555" d="M15.3,21v14.8c0,2-0.5,3.5-1.6,4.7c-1.1,1.2-2.7,1.8-5,1.8c-1.2,0-2.3-0.1-3.3-0.2c-1-0.1-1.9-0.4-2.8-0.7
		V38c0.9,0.4,1.7,0.6,2.6,0.8C6.2,39,7,39.1,7.7,39.1c1.6,0,2.7-0.3,3.2-0.9c0.6-0.6,0.9-1.5,0.9-2.7V34c-1.3,1.1-2.7,1.6-4.1,1.6
		c-2,0-3.6-0.6-4.8-1.9c-1.2-1.3-1.8-3.1-1.8-5.6c0-1.6,0.3-3,0.9-4.1c0.6-1.1,1.4-2,2.3-2.5c1-0.6,2.1-0.8,3.4-0.8
		c1.4,0,2.8,0.5,4.1,1.6V21H15.3z M11.8,31.1v-6c-1.2-0.9-2.3-1.3-3.4-1.3c-1.2,0-2.1,0.4-2.7,1.1c-0.6,0.8-0.9,1.8-0.9,3.2
		c0,1.5,0.3,2.6,0.9,3.3s1.5,1,2.7,1C9.6,32.4,10.7,32,11.8,31.1z"/>
	<path fill="#555555" d="M19.3,14.5h3.5v4h-3.5V14.5z M19.3,21h3.5v14.7h-3.5V21z"/>
	<path fill="#555555" d="M39,22.2c0.9,1,1.4,2.5,1.4,4.7v8.8h-3.5v-8.8c0-1-0.2-1.8-0.6-2.3c-0.4-0.5-1.1-0.7-2.1-0.7
		c-1.2,0-2.4,0.5-3.6,1.5v10.3H27V21h3.5v1.4c1.3-1.1,2.8-1.7,4.3-1.7C36.7,20.7,38.1,21.2,39,22.2z"/>
	<path fill="#555555" d="M53.5,21.8c0.9,0.5,1.5,1.2,1.8,2.1c0.3,0.9,0.4,2,0.4,3.3v8.5h-3.5v-1.3c-0.6,0.6-1.3,1-1.9,1.3
		c-0.6,0.3-1.3,0.4-2,0.4c-1.5,0-2.8-0.4-3.7-1.3c-0.9-0.9-1.4-2.1-1.4-3.6c0-1.6,0.5-2.8,1.5-3.7c1-0.9,2.3-1.3,4-1.3
		c1.4,0,2.6,0.3,3.6,0.8c0-0.7-0.1-1.2-0.2-1.6s-0.4-0.7-0.9-0.9c-0.4-0.2-1.1-0.3-1.9-0.3h-2.5v-3h2.9C51.3,21,52.6,21.3,53.5,21.8
		z M52.3,31.7v-2.3c-0.9-0.5-1.9-0.7-2.9-0.7c-0.8,0-1.4,0.2-1.9,0.5c-0.5,0.4-0.7,0.9-0.7,1.7c0,0.8,0.2,1.4,0.6,1.7
		s0.9,0.5,1.6,0.5C50,33.2,51.1,32.7,52.3,31.7z"/>
	<path fill="#555555" d="M67.3,35.8c-0.9-0.2-1.8-0.5-2.8-1v-3.2c0.9,0.5,1.9,0.9,2.8,1.1c1,0.2,2,0.4,3,0.4c1.5,0,2.2-0.5,2.2-1.6
		c0-0.5-0.1-0.8-0.4-1c-0.3-0.2-0.7-0.4-1.2-0.5l-2.2-0.5c-1.3-0.3-2.4-0.8-3.1-1.5c-0.7-0.7-1-1.6-1-2.9c0-3,1.9-4.6,5.7-4.6
		c1.7,0,3.3,0.3,5,0.9v3.1c-0.6-0.3-1.4-0.6-2.2-0.8c-0.8-0.2-1.7-0.3-2.6-0.3c-1.5,0-2.3,0.5-2.3,1.4c0,0.4,0.1,0.7,0.4,0.9
		c0.3,0.2,0.6,0.4,1.1,0.5l2.1,0.5c1.4,0.3,2.5,0.8,3.1,1.5c0.7,0.7,1,1.7,1,3.1c0,1.6-0.5,2.7-1.6,3.5s-2.5,1.2-4.2,1.2
		C69.2,36.1,68.2,36,67.3,35.8z"/>
	<path fill="#555555" d="M80.5,34c-1.2-1.4-1.9-3.3-1.9-5.7c0-2.4,0.6-4.3,1.9-5.7c1.2-1.4,3.1-2,5.4-2.1c0.8,0,1.6,0.1,2.2,0.2
		c0.6,0.1,1.2,0.3,1.9,0.6v3.3c-0.6-0.3-1.3-0.5-1.8-0.7c-0.6-0.1-1.2-0.2-1.9-0.2c-2.7,0-4,1.5-4,4.5c0,3.1,1.3,4.7,3.9,4.7
		c1.3,0,2.5-0.4,3.9-1.1l1,2.9c-1.6,0.9-3.3,1.4-5.1,1.4C83.5,36.1,81.7,35.4,80.5,34z"/>
	<path fill="#555555" d="M105.8,22.2c0.9,1,1.4,2.5,1.4,4.7v8.8h-3.5v-8.8c0-1-0.2-1.8-0.6-2.3c-0.4-0.5-1.1-0.7-2.1-0.7
		c-1.2,0-2.4,0.5-3.6,1.5v10.3h-3.5V13.5h3.5v8.9c1.3-1.1,2.8-1.7,4.3-1.7C103.5,20.7,104.9,21.2,105.8,22.2z"/>
	<path fill="#555555" d="M132.3,21l-4.1,14.9h-4.1l-3.1-9.9l-3.1,9.9H114L109.8,21h3.6l2.6,10.5l3-10.5h4.1l3,10.5l2.5-10.5H132.3z"
		/>
	<path fill="#555555" d="M142.3,33.1c0.7,0,1.3-0.1,2-0.3s1.4-0.5,2.2-0.8l0.9,2.8c-0.8,0.5-1.7,0.8-2.6,1c-0.9,0.2-1.9,0.3-3,0.3
		c-1.6,0-3-0.3-4.2-1c-1.2-0.7-2-1.6-2.6-2.7c-0.6-1.2-0.9-2.5-0.9-4.1c0-1.6,0.3-3,0.9-4.2c0.6-1.2,1.4-2,2.5-2.6
		c1-0.6,2.2-0.9,3.5-0.9c2,0,3.6,0.6,4.8,1.8s1.8,3,1.8,5.3v1.4h-9.8C138.2,31.8,139.7,33.1,142.3,33.1z M138,26.4h6
		c-0.1-1-0.4-1.7-0.8-2.1c-0.5-0.5-1.2-0.7-2-0.7C139.5,23.6,138.4,24.5,138,26.4z"/>
	<path fill="#555555" d="M150.8,14.5h3.5v4h-3.5V14.5z M150.8,21h3.5v14.7h-3.5V21z"/>
	<path fill="#555555" d="M169.7,32.6v3.1h-11.6v-3.1l7.1-8.4h-6.6V21h10.6v3.1l-7.1,8.4H169.7z"/>
	<path fill="#555555" d="M180.3,33.1c0.7,0,1.3-0.1,2-0.3s1.4-0.5,2.2-0.8l0.9,2.8c-0.8,0.5-1.7,0.8-2.6,1c-0.9,0.2-1.9,0.3-3,0.3
		c-1.6,0-3-0.3-4.2-1c-1.2-0.7-2-1.6-2.6-2.7c-0.6-1.2-0.9-2.5-0.9-4.1c0-1.6,0.3-3,0.9-4.2c0.6-1.2,1.4-2,2.5-2.6
		c1-0.6,2.2-0.9,3.5-0.9c2,0,3.6,0.6,4.8,1.8s1.8,3,1.8,5.3v1.4h-9.8C176.1,31.8,177.6,33.1,180.3,33.1z M176,26.4h6
		c-0.1-1-0.4-1.7-0.8-2.1c-0.5-0.5-1.2-0.7-2-0.7C177.4,23.6,176.4,24.5,176,26.4z"/>
	<path fill="#555555" d="M197.1,20.7v3.1h-0.6c-1.4,0-2.8,0.5-4.2,1.6v10.2h-3.5V21h3.5v1.5c1.3-1.2,2.8-1.8,4.2-1.8H197.1z"/>
</g>
<g enable-background="new    ">
</g>
<g enable-background="new    ">
	<path fill="#555555" d="M228.9,22.7c1.2,1.3,1.7,3.2,1.7,5.7c0,2.5-0.6,4.4-1.7,5.7c-1.2,1.3-2.7,2-4.7,2c-1.4,0-2.8-0.6-4.2-1.8
		v7.4h-2.5V21.2h2.5v1.4c1.4-1.2,2.8-1.8,4.2-1.8C226.1,20.8,227.7,21.4,228.9,22.7z M227,32.5c0.7-0.9,1.1-2.3,1.1-4
		c0-1.8-0.4-3.1-1.1-4s-1.8-1.4-3.1-1.4c-1.3,0-2.6,0.5-3.9,1.6v7.5c1.3,1.1,2.6,1.6,3.9,1.6C225.2,33.8,226.3,33.4,227,32.5z"/>
	<path fill="#555555" d="M236.8,35.1c-1.1-0.7-1.9-1.6-2.4-2.8c-0.5-1.2-0.8-2.5-0.8-3.9c0-1.5,0.3-2.8,0.8-3.9
		c0.5-1.2,1.3-2.1,2.4-2.8c1.1-0.7,2.4-1,3.9-1s2.8,0.3,3.9,1c1.1,0.7,1.9,1.6,2.4,2.8c0.5,1.2,0.8,2.5,0.8,3.9
		c0,1.5-0.3,2.8-0.8,3.9c-0.5,1.2-1.3,2.1-2.4,2.8s-2.4,1-3.9,1S237.9,35.8,236.8,35.1z M244.1,32.4c0.8-1,1.2-2.3,1.2-3.9
		c0-1.6-0.4-2.9-1.2-3.9c-0.8-1-1.9-1.5-3.4-1.5s-2.6,0.5-3.4,1.5c-0.8,1-1.2,2.3-1.2,3.9c0,1.6,0.4,2.9,1.2,3.9
		c0.8,1,1.9,1.5,3.4,1.5S243.3,33.4,244.1,32.4z"/>
	<path fill="#555555" d="M259.1,20.9v2.3h-0.6c-1.5,0-3,0.6-4.4,1.8v10.7h-2.5V21.2h2.5v1.6c1.4-1.3,2.9-1.9,4.4-1.9H259.1z"/>
	<path fill="#555555" d="M265.2,23.6v8.3c0,0.7,0.1,1.2,0.3,1.4c0.2,0.3,0.6,0.4,1.2,0.4c0.5,0,1.1-0.1,1.7-0.2v2.2
		c-0.8,0.2-1.5,0.3-2.1,0.3c-1.3,0-2.3-0.3-2.8-0.8c-0.5-0.5-0.8-1.5-0.8-2.7v-8.8h-1.9v-2.3h1.9v-5h2.5v5h3.4v2.3H265.2z"/>
	<path fill="#555555" d="M275.3,15.8c-0.2,0.3-0.3,0.7-0.3,1.4v3.9h2.9v2.3h-2.9v12.2h-2.5V23.5h-1.8v-2.3h1.8v-4.6
		c0-1.2,0.3-2.1,0.9-2.6s1.5-0.8,2.8-0.8c0.4,0,1,0.1,1.7,0.2v2.3c-0.4-0.1-0.8-0.2-1.3-0.2C275.9,15.4,275.5,15.6,275.3,15.8z"/>
	<path fill="#555555" d="M283.2,35.1c-1.1-0.7-1.9-1.6-2.4-2.8c-0.5-1.2-0.8-2.5-0.8-3.9c0-1.5,0.3-2.8,0.8-3.9
		c0.5-1.2,1.3-2.1,2.4-2.8c1.1-0.7,2.4-1,3.9-1s2.8,0.3,3.9,1c1.1,0.7,1.9,1.6,2.4,2.8c0.5,1.2,0.8,2.5,0.8,3.9
		c0,1.5-0.3,2.8-0.8,3.9c-0.5,1.2-1.3,2.1-2.4,2.8s-2.4,1-3.9,1S284.2,35.8,283.2,35.1z M290.5,32.4c0.8-1,1.2-2.3,1.2-3.9
		c0-1.6-0.4-2.9-1.2-3.9c-0.8-1-1.9-1.5-3.4-1.5s-2.6,0.5-3.4,1.5c-0.8,1-1.2,2.3-1.2,3.9c0,1.6,0.4,2.9,1.2,3.9
		c0.8,1,1.9,1.5,3.4,1.5S289.7,33.4,290.5,32.4z"/>
	<path fill="#555555" d="M298.9,35.2c-0.6-0.5-0.9-1.4-0.9-2.6V13.5h2.5v18.4c0,0.7,0.1,1.2,0.3,1.4c0.2,0.3,0.6,0.4,1.2,0.4
		c0.5,0,0.9-0.1,1.3-0.2v2.3c-0.7,0.1-1.2,0.2-1.7,0.2C300.4,36,299.5,35.8,298.9,35.2z"/>
	<path fill="#555555" d="M306.4,14.5h2.5v4h-2.5V14.5z M306.4,21.2h2.5v14.5h-2.5V21.2z"/>
	<path fill="#555555" d="M315.9,35.1c-1.1-0.7-1.9-1.6-2.4-2.8c-0.5-1.2-0.8-2.5-0.8-3.9c0-1.5,0.3-2.8,0.8-3.9
		c0.5-1.2,1.4-2.1,2.4-2.8c1.1-0.7,2.4-1,3.9-1c1.5,0,2.8,0.3,3.9,1c1.1,0.7,1.9,1.6,2.4,2.8c0.5,1.2,0.8,2.5,0.8,3.9
		c0,1.5-0.3,2.8-0.8,3.9c-0.5,1.2-1.3,2.1-2.4,2.8c-1.1,0.7-2.4,1-3.9,1C318.3,36.1,317,35.8,315.9,35.1z M323.2,32.4
		c0.8-1,1.2-2.3,1.2-3.9c0-1.6-0.4-2.9-1.2-3.9c-0.8-1-1.9-1.5-3.4-1.5c-1.5,0-2.6,0.5-3.4,1.5s-1.2,2.3-1.2,3.9
		c0,1.6,0.4,2.9,1.2,3.9s1.9,1.5,3.4,1.5C321.3,33.9,322.4,33.4,323.2,32.4z"/>
</g>
<g>
	<rect x="205.9" fill="#555555" width="1.1" height="56"/>
</g>
<title>header-logo</title>
<text transform="matrix(1 0 0 1 0 -94.32)" fill="#555555" font-family="'Biryani-Bold'" font-size="26.22px">gina schweizer </text>
<text transform="matrix(1 0 0 1 203.63 -94.32)" fill="#555555" font-family="'Biryani-Bold'" font-size="26.22px">  </text>
<text transform="matrix(1 0 0 1 215.17 -94.32)" fill="#555555" font-family="'Biryani-Regular'" font-size="26.22px">portfolio</text>
<line fill="none" stroke="#555555" stroke-width="1.14" stroke-miterlimit="10" x1="206.5" y1="-130" x2="206.5" y2="-74"/>
</svg>
