<?xml version="1.0" encoding="utf-8"?>
<!-- Generator: Adobe Illustrator 20.1.0, SVG Export Plug-In . SVG Version: 6.00 Build 0)  -->
<svg version="1.1" id="Layer_1" xmlns="http://www.w3.org/2000/svg" xmlns:xlink="http://www.w3.org/1999/xlink" x="0px" y="0px"
	 viewBox="0 0 41.6 41.5" enable-background="new 0 0 41.6 41.5" xml:space="preserve">
<g>
	<path fill="#FFFFFF" d="M16.5,35.4c1.8,0,3.7,0,5.5,0c0.3,0,0.4-0.1,0.4-0.4c0-2.9,0-5.7,0-8.6c0-0.8,0-1.7,0.1-2.5
		c0.1-0.6,0.2-1.1,0.4-1.7c0.5-1.2,1.7-1.8,3.2-1.7c1.6,0.1,2.5,0.8,2.8,2.4c0.1,0.7,0.2,1.4,0.2,2.2c0,3.3,0,6.6,0,9.9
		c0,0.4,0,0.4,0.4,0.4c1.8,0,3.6,0,5.4,0c0.4,0,0.4,0,0.4-0.4c0-3.6,0-7.3,0-10.9c0-1.5-0.1-3-0.5-4.4c-0.5-1.7-1.4-3.1-3-3.9
		c-1-0.5-2-0.7-3.1-0.8c-2.8-0.2-5.1,0.7-6.8,3.1c0-0.8,0-1.6,0-2.3c0-0.3-0.1-0.4-0.4-0.4c-1.8,0-3.5,0-5.3,0
		c-0.3,0-0.4,0.1-0.4,0.4c0,6.4,0,12.8,0,19.2C16.1,35.4,16.2,35.4,16.5,35.4z"/>
	<path fill="#FFFFFF" d="M9.2,12.9c2,0,3.6-1.6,3.6-3.6c0-2-1.6-3.6-3.6-3.6c-2,0-3.6,1.6-3.6,3.6C5.6,11.3,7.2,12.9,9.2,12.9z"/>
	<path fill="#FFFFFF" d="M12,15.5c-1.8,0-3.7,0-5.6,0c-0.3,0-0.4,0.1-0.4,0.4c0,6.4,0,12.8,0,19.2c0,0.3,0.1,0.4,0.4,0.4
		c1.8,0,3.7,0,5.5,0c0.4,0,0.4,0,0.4-0.4c0-3.2,0-6.4,0-9.5c0-3.2,0-6.4,0-9.6C12.4,15.6,12.3,15.5,12,15.5z"/>
	<path fill="#333333" d="M38.9,0.1c-0.1,0-0.1,0-0.2-0.1c-12,0-24,0-35.9,0C2.7,0,2.5,0.1,2.3,0.1c-1.2,0.3-2,1.1-2.2,2.4
		C0.1,2.6,0,2.6,0,2.7c0,12,0,24,0,36.1c0,0.2,0.1,0.3,0.1,0.5c0.4,1.3,1.6,2.3,2.9,2.3c1.6,0,3.1,0,4.7,0c10.2,0,20.4,0,30.6,0
		c1.8,0,3.2-1.4,3.2-3.2c0-11.7,0-23.4,0-35.1C41.6,1.5,40.4,0.2,38.9,0.1z M9.2,12.9c-2,0-3.6-1.6-3.6-3.6c0-2,1.6-3.6,3.6-3.6
		c2,0,3.6,1.6,3.6,3.6C12.9,11.3,11.2,12.9,9.2,12.9z M12.4,15.9c0,3.2,0,6.4,0,9.6c0,3.2,0,6.4,0,9.5c0,0.4,0,0.4-0.4,0.4
		c-1.8,0-3.7,0-5.5,0c-0.3,0-0.4-0.1-0.4-0.4c0-6.4,0-12.8,0-19.2c0-0.3,0.1-0.4,0.4-0.4c1.8,0,3.7,0,5.6,0
		C12.3,15.5,12.4,15.6,12.4,15.9z M35.1,35.4c-1.8,0-3.6,0-5.4,0c-0.4,0-0.4,0-0.4-0.4c0-3.3,0-6.6,0-9.9c0-0.7-0.1-1.4-0.2-2.2
		c-0.3-1.6-1.2-2.3-2.8-2.4c-1.6-0.1-2.7,0.5-3.2,1.7c-0.2,0.5-0.4,1.1-0.4,1.7c-0.1,0.8-0.1,1.7-0.1,2.5c0,2.9,0,5.7,0,8.6
		c0,0.3-0.1,0.4-0.4,0.4c-1.8,0-3.7,0-5.5,0c-0.3,0-0.4-0.1-0.4-0.4c0-6.4,0-12.8,0-19.2c0-0.3,0.1-0.4,0.4-0.4c1.8,0,3.5,0,5.3,0
		c0.3,0,0.4,0.1,0.4,0.4c0,0.8,0,1.5,0,2.3c1.6-2.5,3.9-3.3,6.8-3.1c1.1,0.1,2.1,0.3,3.1,0.8c1.6,0.8,2.5,2.2,3,3.9
		c0.4,1.5,0.5,2.9,0.5,4.4c0,3.6,0,7.3,0,10.9C35.5,35.4,35.5,35.4,35.1,35.4z"/>
</g>
</svg>
