<?xml version="1.0" encoding="utf-8"?>
<!-- Generator: Adobe Illustrator 20.1.0, SVG Export Plug-In . SVG Version: 6.00 Build 0)  -->
<svg version="1.1" id="Layer_1" xmlns="http://www.w3.org/2000/svg" xmlns:xlink="http://www.w3.org/1999/xlink" x="0px" y="0px"
	 viewBox="0 0 185.6 42" enable-background="new 0 0 185.6 42" xml:space="preserve">
<g>
	<g>
		<g enable-background="new    ">
			<path fill="#FFFFFF" d="M74.5,29.2c-0.4-0.4-0.7-1.1-0.7-2V12.6h1.9v14.1c0,0.5,0.1,0.9,0.2,1.1c0.2,0.2,0.5,0.3,0.9,0.3
				c0.4,0,0.7,0,1-0.1v1.7c-0.5,0.1-1,0.1-1.3,0.1C75.6,29.8,74.9,29.6,74.5,29.2z"/>
			<path fill="#FFFFFF" d="M82.4,27.1c0.6,0.7,1.5,1.1,2.8,1.1c1,0,2-0.3,3.2-0.8l0.6,1.6c-1.2,0.6-2.5,0.9-3.9,0.9
				c-1.2,0-2.2-0.2-3-0.7c-0.8-0.5-1.5-1.2-1.9-2.1s-0.6-1.9-0.6-3.1c0-1.2,0.2-2.3,0.7-3.2c0.4-0.9,1-1.5,1.8-2
				c0.8-0.5,1.6-0.7,2.6-0.7c1.5,0,2.6,0.5,3.4,1.4c0.8,0.9,1.2,2.2,1.2,3.9v0.7h-7.7C81.5,25.4,81.8,26.3,82.4,27.1z M81.6,22.5
				h5.6c-0.1-0.9-0.3-1.6-0.8-2.1c-0.4-0.4-1.1-0.7-1.9-0.7C82.9,19.8,81.9,20.7,81.6,22.5z"/>
			<path fill="#FFFFFF" d="M94.1,20.3v6.3c0,0.5,0.1,0.9,0.2,1.1c0.2,0.2,0.5,0.3,0.9,0.3c0.4,0,0.8-0.1,1.3-0.2v1.7
				c-0.6,0.1-1.1,0.2-1.6,0.2c-1,0-1.7-0.2-2.1-0.6s-0.6-1.1-0.6-2.1v-6.7h-1.4v-1.7h1.4v-3.8h1.9v3.8h2.6v1.7H94.1z"/>
			<path fill="#FFFFFF" d="M100.5,29.6c-0.6-0.1-1.3-0.4-2-0.7v-1.9c1.3,0.7,2.6,1.1,4.1,1.1c0.7,0,1.3-0.2,1.6-0.5
				c0.3-0.3,0.5-0.7,0.5-1.2c0-0.5-0.1-0.8-0.4-1.1c-0.3-0.2-0.7-0.4-1.3-0.6l-1.3-0.3c-0.9-0.2-1.7-0.6-2.2-1.1s-0.8-1.2-0.8-2.2
				c0-1,0.3-1.8,1-2.3s1.6-0.8,2.9-0.8c0.7,0,1.3,0.1,1.8,0.2c0.6,0.1,1.1,0.3,1.7,0.5v1.8c-0.5-0.3-1.1-0.4-1.6-0.6
				c-0.5-0.1-1.1-0.2-1.8-0.2c-0.7,0-1.2,0.1-1.5,0.4s-0.5,0.6-0.5,1c0,0.5,0.1,0.8,0.4,1c0.3,0.2,0.7,0.4,1.2,0.6l1.3,0.3
				c0.7,0.2,1.2,0.4,1.7,0.6c0.4,0.2,0.8,0.6,1,1c0.2,0.4,0.4,1,0.4,1.7c0,1.1-0.4,1.9-1.1,2.5s-1.7,0.9-2.9,0.9
				C101.9,29.8,101.2,29.8,100.5,29.6z"/>
			<path fill="#FFFFFF" d="M122.7,19.6c0.9,1,1.3,2.5,1.3,4.4c0,1.9-0.4,3.4-1.3,4.4c-0.9,1-2.1,1.5-3.6,1.5c-1.1,0-2.1-0.4-3.2-1.3
				v1H114V12.6h1.9v6.9c1.1-0.9,2.1-1.4,3.2-1.4C120.6,18.1,121.8,18.6,122.7,19.6z M121.2,27.1c0.5-0.7,0.8-1.7,0.8-3.1
				s-0.3-2.4-0.8-3.1s-1.3-1-2.4-1c-1,0-2,0.4-2.9,1.2v5.7c1,0.8,2,1.2,2.9,1.2C119.9,28.1,120.7,27.8,121.2,27.1z"/>
			<path fill="#FFFFFF" d="M132.6,18.2V20h-0.5c-1.1,0-2.3,0.5-3.3,1.4v8.2h-1.9V18.4h1.9v1.2c1.1-1,2.2-1.5,3.3-1.5H132.6z"/>
			<path fill="#FFFFFF" d="M136.8,29.1c-0.8-0.5-1.4-1.2-1.8-2.1c-0.4-0.9-0.6-1.9-0.6-3c0-1.1,0.2-2.1,0.6-3c0.4-0.9,1-1.6,1.8-2.1
				c0.8-0.5,1.8-0.8,3-0.8c1.2,0,2.2,0.3,3,0.8c0.8,0.5,1.4,1.2,1.8,2.1c0.4,0.9,0.6,1.9,0.6,3c0,1.1-0.2,2.1-0.6,3
				c-0.4,0.9-1,1.6-1.8,2.1c-0.8,0.5-1.8,0.8-3,0.8C138.6,29.8,137.6,29.6,136.8,29.1z M142.4,27c0.6-0.8,0.9-1.8,0.9-3
				s-0.3-2.2-0.9-3s-1.5-1.2-2.6-1.2c-1.1,0-2,0.4-2.6,1.2s-0.9,1.8-0.9,3s0.3,2.2,0.9,3s1.5,1.2,2.6,1.2
				C140.9,28.1,141.8,27.8,142.4,27z"/>
			<path fill="#FFFFFF" d="M163.1,18.4l-3.4,11.2h-2l-2.7-8.5l-2.7,8.5h-2l-3.4-11.2h2l2.5,8.8l2.6-8.8h2.2l2.7,8.8l2.5-8.8H163.1z"
				/>
			<path fill="#FFFFFF" d="M166.6,29.6c-0.6-0.1-1.3-0.4-2-0.7v-1.9c1.3,0.7,2.6,1.1,4.1,1.1c0.7,0,1.3-0.2,1.6-0.5
				c0.3-0.3,0.5-0.7,0.5-1.2c0-0.5-0.1-0.8-0.4-1.1c-0.3-0.2-0.7-0.4-1.3-0.6l-1.3-0.3c-0.9-0.2-1.7-0.6-2.2-1.1s-0.8-1.2-0.8-2.2
				c0-1,0.3-1.8,1-2.3s1.6-0.8,2.9-0.8c0.7,0,1.3,0.1,1.8,0.2c0.6,0.1,1.1,0.3,1.7,0.5v1.8c-0.5-0.3-1.1-0.4-1.6-0.6
				c-0.5-0.1-1.1-0.2-1.8-0.2c-0.7,0-1.2,0.1-1.5,0.4s-0.5,0.6-0.5,1c0,0.5,0.1,0.8,0.4,1c0.3,0.2,0.7,0.4,1.2,0.6l1.3,0.3
				c0.7,0.2,1.2,0.4,1.7,0.6c0.4,0.2,0.8,0.6,1,1c0.2,0.4,0.4,1,0.4,1.7c0,1.1-0.4,1.9-1.1,2.5s-1.7,0.9-2.9,0.9
				C167.9,29.8,167.2,29.8,166.6,29.6z"/>
			<path fill="#FFFFFF" d="M177.9,27.1c0.6,0.7,1.5,1.1,2.8,1.1c1,0,2-0.3,3.2-0.8l0.6,1.6c-1.2,0.6-2.5,0.9-3.9,0.9
				c-1.2,0-2.2-0.2-3-0.7c-0.8-0.5-1.5-1.2-1.9-2.1S175,25.1,175,24c0-1.2,0.2-2.3,0.7-3.2s1-1.5,1.8-2c0.8-0.5,1.6-0.7,2.6-0.7
				c1.5,0,2.6,0.5,3.4,1.4c0.8,0.9,1.2,2.2,1.2,3.9v0.7H177C177,25.4,177.3,26.3,177.9,27.1z M177.1,22.5h5.6
				c-0.1-0.9-0.3-1.6-0.8-2.1c-0.4-0.4-1.1-0.7-1.9-0.7C178.4,19.8,177.4,20.7,177.1,22.5z"/>
		</g>
	</g>
	<g>
		<g enable-background="new    ">
			<path fill="#FFFFFF" d="M17.7,18l-3.1,11.4h-3.1l-2.4-7.6l-2.3,7.6H3.7L0.5,18h2.8l2,8l2.3-8h3.2l2.3,8l1.9-8H17.7z"/>
			<path fill="#FFFFFF" d="M21.8,28.7c-0.9-0.5-1.5-1.2-2-2.1c-0.4-0.9-0.6-1.9-0.6-3c0-1.1,0.2-2.1,0.6-3c0.4-0.9,1.1-1.6,2-2.1
				c0.9-0.5,1.9-0.8,3.2-0.8c1.2,0,2.3,0.3,3.1,0.8c0.9,0.5,1.5,1.2,1.9,2.1c0.4,0.9,0.6,1.9,0.6,3c0,1.1-0.2,2.1-0.6,3
				c-0.4,0.9-1.1,1.6-1.9,2.1c-0.9,0.5-1.9,0.8-3.1,0.8C23.7,29.5,22.6,29.2,21.8,28.7z M27.1,26.2c0.5-0.6,0.8-1.5,0.8-2.6
				c0-1.1-0.3-2-0.8-2.6c-0.5-0.6-1.2-1-2.2-1c-1,0-1.7,0.3-2.2,1c-0.5,0.6-0.8,1.5-0.8,2.6c0,1.1,0.3,2,0.8,2.6
				c0.5,0.6,1.2,1,2.2,1C25.9,27.2,26.6,26.8,27.1,26.2z"/>
			<path fill="#FFFFFF" d="M39.5,17.7v2.4h-0.5c-1.1,0-2.2,0.4-3.2,1.2v7.8h-2.7V18h2.7v1.1c1-0.9,2.1-1.4,3.2-1.4H39.5z"/>
			<path fill="#FFFFFF" d="M45.5,24.7l-1.1,1.1v3.3h-2.7V12.2h2.7v10.2l4-4.2h3.2l-4.4,4.6l5,6.3H49L45.5,24.7z"/>
		</g>
	</g>
	<g>
		<rect x="62.3" fill="#FFFFFF" width="1" height="42"/>
	</g>
</g>
<g>
	<g>
		<text transform="matrix(1 0 0 1 71.998 -100.4931)" fill="#FFFFFF" font-family="'Biryani-Regular'" font-size="20px">lets browse</text>
	</g>
	<g>
		<text transform="matrix(1 0 0 1 -6.103516e-05 -100.8408)" fill="#FFFFFF" font-family="'Biryani-Bold'" font-size="20px">work</text>
	</g>
	<line fill="none" stroke="#FFFFFF" stroke-miterlimit="10" x1="62.8" y1="-130" x2="62.8" y2="-88"/>
</g>
</svg>
